<?xml version="1.0" encoding="utf-8"?>
<!-- Generator: Adobe Illustrator 27.5.0, SVG Export Plug-In . SVG Version: 6.00 Build 0)  -->
<svg version="1.1" xmlns="http://www.w3.org/2000/svg" xmlns:xlink="http://www.w3.org/1999/xlink" x="0px" y="0px"
	 viewBox="0 0 500 500" style="enable-background:new 0 0 500 500;" xml:space="preserve">
<g id="BACKGROUND">
	<g>
		<path style="fill:#C8E6EB;" d="M467.608,412.941H32.392c-8.956,0-16.216-7.26-16.216-16.216V84.751
			c0-8.956,7.26-16.216,16.216-16.216h435.217c8.956,0,16.216,7.26,16.216,16.216v311.974
			C483.824,405.681,476.564,412.941,467.608,412.941z"/>
		<g>
			<defs>
				<path id="SVGID_1_" d="M467.608,412.941H32.392c-8.956,0-16.216-7.26-16.216-16.216V84.751c0-8.956,7.26-16.216,16.216-16.216
					h435.217c8.956,0,16.216,7.26,16.216,16.216v311.974C483.824,405.681,476.564,412.941,467.608,412.941z"/>
			</defs>
			<clipPath id="SVGID_00000127024946355849999020000003882841969800536197_">
				<use xlink:href="#SVGID_1_"  style="overflow:visible;"/>
			</clipPath>
			<g style="clip-path:url(#SVGID_00000127024946355849999020000003882841969800536197_);">
				<g>
					<rect x="91.472" y="301.115" style="fill:#FFFFFF;" width="45.75" height="54.725"/>
					<rect x="95.097" y="305.274" style="fill:#C8E6EB;" width="38.5" height="34.314"/>
					<polygon style="fill:#A5C8CD;" points="108.381,314.736 95.097,339.589 121.666,339.589 					"/>
					<polygon style="fill:#B4D7DC;" points="122.687,323.683 114.185,339.589 131.189,339.589 					"/>
					<circle style="fill:#B4D7DC;" cx="125.898" cy="313.734" r="4.232"/>
				</g>
				<g>
					<g>
						<g>
							<g>
								<path style="fill:#FFFFFF;" d="M26.686,358.129c5.978,0,10.841,4.863,10.841,10.841c0,5.978-4.863,10.841-10.841,10.841
									s-10.841-4.863-10.841-10.841C15.845,362.992,20.708,358.129,26.686,358.129 M26.686,355.627
									c-7.369,0-13.343,5.974-13.343,13.343c0,7.369,5.974,13.343,13.343,13.343s13.343-5.974,13.343-13.343
									C40.029,361.601,34.055,355.627,26.686,355.627L26.686,355.627z"/>
							</g>
							<g>
								<path style="fill:#FFFFFF;" d="M32.04,368.97c0,2.957-2.397,5.354-5.354,5.354c-2.957,0-5.354-2.397-5.354-5.354
									c0-2.957,2.397-5.354,5.354-5.354C29.643,363.616,32.04,366.013,32.04,368.97z"/>
							</g>
						</g>
						<g>
							<g>
								<path style="fill:#FFFFFF;" d="M56.917,358.129c5.978,0,10.841,4.863,10.841,10.841c0,5.978-4.863,10.841-10.841,10.841
									c-5.978,0-10.841-4.863-10.841-10.841C46.076,362.992,50.939,358.129,56.917,358.129 M56.917,355.627
									c-7.369,0-13.343,5.974-13.343,13.343c0,7.369,5.974,13.343,13.343,13.343S70.26,376.34,70.26,368.97
									C70.26,361.601,64.286,355.627,56.917,355.627L56.917,355.627z"/>
							</g>
							<g>
								<path style="fill:#FFFFFF;" d="M62.271,368.97c0,2.957-2.397,5.354-5.354,5.354c-2.957,0-5.354-2.397-5.354-5.354
									c0-2.957,2.397-5.354,5.354-5.354C59.874,363.616,62.271,366.013,62.271,368.97z"/>
							</g>
						</g>
						<g>
							<g>
								<path style="fill:#FFFFFF;" d="M87.147,358.129c5.978,0,10.841,4.863,10.841,10.841c0,5.978-4.863,10.841-10.841,10.841
									c-5.978,0-10.841-4.863-10.841-10.841C76.306,362.992,81.17,358.129,87.147,358.129 M87.147,355.627
									c-7.369,0-13.343,5.974-13.343,13.343c0,7.369,5.974,13.343,13.343,13.343c7.369,0,13.343-5.974,13.343-13.343
									C100.491,361.601,94.517,355.627,87.147,355.627L87.147,355.627z"/>
							</g>
							<g>
								<path style="fill:#FFFFFF;" d="M92.501,368.97c0,2.957-2.397,5.354-5.354,5.354c-2.957,0-5.354-2.397-5.354-5.354
									c0-2.957,2.397-5.354,5.354-5.354C90.104,363.616,92.501,366.013,92.501,368.97z"/>
							</g>
						</g>
						<g>
							<g>
								<path style="fill:#FFFFFF;" d="M117.378,358.129c5.978,0,10.841,4.863,10.841,10.841c0,5.978-4.863,10.841-10.841,10.841
									c-5.978,0-10.841-4.863-10.841-10.841C106.537,362.992,111.4,358.129,117.378,358.129 M117.378,355.627
									c-7.369,0-13.343,5.974-13.343,13.343c0,7.369,5.974,13.343,13.343,13.343c7.369,0,13.343-5.974,13.343-13.343
									C130.721,361.601,124.747,355.627,117.378,355.627L117.378,355.627z"/>
							</g>
							<g>
								<path style="fill:#FFFFFF;" d="M122.732,368.97c0,2.957-2.397,5.354-5.354,5.354c-2.957,0-5.354-2.397-5.354-5.354
									c0-2.957,2.397-5.354,5.354-5.354C120.335,363.616,122.732,366.013,122.732,368.97z"/>
							</g>
						</g>
						<g>
							<g>
								<path style="fill:#FFFFFF;" d="M147.609,358.129c5.978,0,10.841,4.863,10.841,10.841c0,5.978-4.863,10.841-10.841,10.841
									c-5.978,0-10.841-4.863-10.841-10.841C136.767,362.992,141.631,358.129,147.609,358.129 M147.609,355.627
									c-7.369,0-13.343,5.974-13.343,13.343c0,7.369,5.974,13.343,13.343,13.343c7.369,0,13.343-5.974,13.343-13.343
									C160.952,361.601,154.978,355.627,147.609,355.627L147.609,355.627z"/>
							</g>
							<g>
								<path style="fill:#FFFFFF;" d="M152.963,368.97c0,2.957-2.397,5.354-5.354,5.354c-2.957,0-5.354-2.397-5.354-5.354
									c0-2.957,2.397-5.354,5.354-5.354C150.566,363.616,152.963,366.013,152.963,368.97z"/>
							</g>
						</g>
						<g>
							<g>
								<path style="fill:#FFFFFF;" d="M177.839,358.129c5.978,0,10.841,4.863,10.841,10.841c0,5.978-4.863,10.841-10.841,10.841
									c-5.978,0-10.841-4.863-10.841-10.841C166.998,362.992,171.861,358.129,177.839,358.129 M177.839,355.627
									c-7.369,0-13.343,5.974-13.343,13.343c0,7.369,5.974,13.343,13.343,13.343c7.369,0,13.343-5.974,13.343-13.343
									C191.182,361.601,185.209,355.627,177.839,355.627L177.839,355.627z"/>
							</g>
							<g>
								<path style="fill:#FFFFFF;" d="M183.193,368.97c0,2.957-2.397,5.354-5.354,5.354c-2.957,0-5.354-2.397-5.354-5.354
									c0-2.957,2.397-5.354,5.354-5.354C180.796,363.616,183.193,366.013,183.193,368.97z"/>
							</g>
						</g>
						<g>
							<g>
								<path style="fill:#FFFFFF;" d="M208.07,358.129c5.978,0,10.841,4.863,10.841,10.841c0,5.978-4.863,10.841-10.841,10.841
									c-5.978,0-10.841-4.863-10.841-10.841C197.229,362.992,202.092,358.129,208.07,358.129 M208.07,355.627
									c-7.369,0-13.343,5.974-13.343,13.343c0,7.369,5.974,13.343,13.343,13.343s13.343-5.974,13.343-13.343
									C221.413,361.601,215.439,355.627,208.07,355.627L208.07,355.627z"/>
							</g>
							<g>
								<path style="fill:#FFFFFF;" d="M213.424,368.97c0,2.957-2.397,5.354-5.354,5.354c-2.957,0-5.354-2.397-5.354-5.354
									c0-2.957,2.397-5.354,5.354-5.354C211.027,363.616,213.424,366.013,213.424,368.97z"/>
							</g>
						</g>
					</g>
					<g>
						<path style="fill:#FFFFFF;" d="M221.413,358.129c5.978,0,10.841,4.863,10.841,10.841s-4.863,10.841-10.841,10.841H13.343
							c-5.978,0-10.841-4.863-10.841-10.841c0-5.978,4.863-10.841,10.841-10.841H221.413 M221.413,355.627H13.343
							C5.974,355.627,0,361.601,0,368.97v0c0,7.369,5.974,13.343,13.343,13.343h208.07c7.369,0,13.343-5.974,13.343-13.343v0
							C234.756,361.601,228.782,355.627,221.413,355.627L221.413,355.627z"/>
					</g>
				</g>
				<g>
					<polyline style="fill:none;stroke:#FFFFFF;stroke-width:1.5;stroke-miterlimit:10;" points="31.176,184.758 51.398,148.66 
						71.619,184.758 					"/>
					<g>
						
							<rect x="25.46" y="178.926" transform="matrix(0.9916 0.1297 -0.1297 0.9916 27.1566 -4.5258)" style="fill:#FFFFFF;" width="45.75" height="54.725"/>
						
							<rect x="29.869" y="183.136" transform="matrix(0.9916 0.1297 -0.1297 0.9916 26.3857 -4.6781)" style="fill:#C8E6EB;" width="38.5" height="34.315"/>
						<polygon style="fill:#A5C8CD;" points="44.202,191.889 27.807,214.81 54.152,218.255 						"/>
						<polygon style="fill:#B4D7DC;" points="57.226,202.616 46.734,217.285 63.595,219.49 						"/>
						<path style="fill:#B4D7DC;" d="M65.897,193.716c-0.303,2.318-2.427,3.951-4.745,3.648s-3.951-2.428-3.648-4.745
							c0.303-2.318,2.428-3.951,4.745-3.648C64.567,189.274,66.2,191.399,65.897,193.716z"/>
					</g>
					
						<line style="fill:none;stroke:#A5C8CD;stroke-width:2;stroke-miterlimit:10;" x1="51.398" y1="157.489" x2="51.398" y2="68.535"/>
				</g>
			</g>
		</g>
	</g>
</g>
<g id="OBJECTS">
	<g>
		<g>
			<path style="fill:#FFFFFF;" d="M453.903,414.497H127.609V49.714c0-4.045,3.28-7.325,7.325-7.325h311.645
				c4.045,0,7.325,3.28,7.325,7.325V414.497z"/>
			<path style="fill:#FF6473;" d="M453.903,66.436H127.609V49.714c0-4.045,3.28-7.325,7.325-7.325h311.645
				c4.045,0,7.325,3.28,7.325,7.325V66.436z"/>
			<path style="fill:#CD2846;" d="M144.3,54.412c0,1.85-1.5,3.351-3.351,3.351s-3.35-1.5-3.35-3.351s1.5-3.35,3.35-3.35
				S144.3,52.562,144.3,54.412z"/>
			<path style="fill:#CD2846;" d="M155.468,54.412c0,1.85-1.5,3.351-3.35,3.351c-1.85,0-3.35-1.5-3.35-3.351s1.5-3.35,3.35-3.35
				C153.968,51.062,155.468,52.562,155.468,54.412z"/>
			<path style="fill:#CD2846;" d="M166.636,54.412c0,1.85-1.5,3.351-3.351,3.351s-3.35-1.5-3.35-3.351s1.5-3.35,3.35-3.35
				S166.636,52.562,166.636,54.412z"/>
			<polygon style="fill:#CD2846;" points="444.104,49.588 440.087,53.604 436.071,49.588 435.263,50.396 439.279,54.412 
				435.263,58.429 436.071,59.237 440.087,55.221 444.104,59.237 444.912,58.429 440.895,54.412 444.912,50.396 			"/>
			<path style="fill:#FA968C;" d="M415.248,62.488H186.446c-3.903,0-7.067-3.164-7.067-7.067v-2.017
				c0-3.903,3.164-7.067,7.067-7.067h228.802c3.903,0,7.067,3.164,7.067,7.067v2.017C422.315,59.324,419.151,62.488,415.248,62.488z
				"/>
			<rect x="153.725" y="78.14" style="fill:#C8E6EB;" width="274.056" height="103.803"/>
			<g>
				<g>
					<path style="fill:#46738C;" d="M143.296,140.249c-0.103,0-0.207-0.039-0.286-0.118l-8.331-8.33
						c-0.158-0.157-0.158-0.414,0-0.571l8.331-8.33c0.157-0.158,0.414-0.158,0.571,0c0.158,0.157,0.158,0.414,0,0.571l-8.045,8.045
						l8.045,8.045c0.158,0.157,0.158,0.414,0,0.571C143.503,140.21,143.399,140.249,143.296,140.249z"/>
				</g>
				<g>
					<path style="fill:#46738C;" d="M438.211,122.779c0.103,0,0.207,0.039,0.286,0.118l8.331,8.331c0.158,0.157,0.158,0.414,0,0.571
						l-8.331,8.331c-0.157,0.158-0.414,0.158-0.571,0c-0.158-0.157-0.158-0.414,0-0.571l8.045-8.045l-8.045-8.045
						c-0.158-0.157-0.158-0.414,0-0.571C438.004,122.818,438.107,122.779,438.211,122.779z"/>
				</g>
			</g>
			<polygon style="fill:#A5C8CD;" points="269.167,89.499 219.753,181.943 318.582,181.943 			"/>
			<polygon style="fill:#B4D7DC;" points="322.379,122.779 290.753,181.943 354.004,181.943 			"/>
			
				<ellipse transform="matrix(0.7071 -0.7071 0.7071 0.7071 25.7678 285.6163)" style="fill:#B4D7DC;" cx="357.653" cy="111.704" rx="15.742" ry="15.742"/>
			<g>
				<g>
					<g>
						<g>
							<g>
								<path style="fill:#BEDCE0;" d="M426.726,265.239c0.136,0.359,0.446,0.156,0.385-0.836l-0.525-0.705L426.726,265.239z"/>
								<path style="fill:#BEDCE0;" d="M427.698,258.562c-0.254-1.167-0.701-2.513-1.183-1.757c0.504,1.156,0.294,1.435,0.894,2.68
									c0.061,0.993-0.168,1.733-0.361,1.566c0.135,0.351-0.115,1.543,0.214,2.077c0.406-1.292,0.423-2.929,0.087-4.638
									C427.465,258.122,427.602,258.478,427.698,258.562z"/>
								<path style="fill:#BEDCE0;" d="M392.102,196.485l0.625,0.062C392.557,196.513,392.342,196.494,392.102,196.485z"/>
								<path style="fill:#BEDCE0;" d="M331.989,196.197c0.458-0.012,0.649-0.065,0.672-0.112
									C332.236,196.119,331.887,196.151,331.989,196.197z"/>
								<path style="fill:#BEDCE0;" d="M321.725,195.618c0.22,0.013,0.406,0.024,0.605,0.036
									C322.1,195.606,321.868,195.579,321.725,195.618z"/>
								<path style="fill:#BEDCE0;" d="M392.102,196.485l-1.606-0.165C390.384,196.491,391.319,196.447,392.102,196.485z"/>
								<path style="fill:#BEDCE0;" d="M426.433,245.183c0.025,0.336,0.074,0.616,0.138,0.872c-0.019-0.276-0.037-0.543-0.056-0.819
									C426.487,245.221,426.462,245.208,426.433,245.183z"/>
								<path style="fill:#BEDCE0;" d="M418.602,196.059l0.488-0.001c0.144-0.06,0.278-0.132,0.406-0.213L418.602,196.059z"/>
								<path style="fill:#BEDCE0;" d="M429.022,208.377c0.019-0.46-0.426-0.62-0.621-0.796c0.183,0.26,0.271,0.6,0.305,1.003
									C428.792,208.592,428.893,208.531,429.022,208.377z"/>
								<path style="fill:#BEDCE0;" d="M428.239,240.625l0.061,0.572C428.284,241.048,428.257,240.798,428.239,240.625z"/>
								<path style="fill:#BEDCE0;" d="M404.045,195.963c-0.034-0.066-0.107-0.125-0.185-0.159
									C403.86,195.86,403.933,195.913,404.045,195.963z"/>
								<path style="fill:#BEDCE0;" d="M404.207,263.147c-0.016,0.032,0.007,0.052,0.002,0.079
									C404.327,263.181,404.364,263.15,404.207,263.147z"/>
								<path style="fill:#BEDCE0;" d="M427.781,265.354l-0.327,0.024c-0.035,0.084-0.071,0.167-0.071,0.25L427.781,265.354z"/>
								<path style="fill:#BEDCE0;" d="M302.942,195.048c0.037,0.004,0.049,0.005,0.083,0.009
									C303.52,195.005,303.24,195.014,302.942,195.048z"/>
								<path style="fill:#BEDCE0;" d="M151.882,220.437c0.398-1.953,0.511,3.179,0.954,0.238
									C152.661,220.949,152.14,218.002,151.882,220.437z"/>
								<path style="fill:#BEDCE0;" d="M426.491,244.656c-0.001-0.275-0.003-0.554-0.004-0.833
									C426.472,244.202,426.473,244.458,426.491,244.656z"/>
								<path style="fill:#BEDCE0;" d="M152.836,220.675h0.003l0.042-0.304C152.862,220.497,152.852,220.568,152.836,220.675z"/>
								<path style="fill:#BEDCE0;" d="M259.663,195.316c0.089,0.078,0.261,0.138,0.441,0.195
									C260.09,195.465,259.99,195.409,259.663,195.316z"/>
								<path style="fill:#BEDCE0;" d="M291.905,195.95l-0.798-0.06C291.424,195.93,291.68,195.945,291.905,195.95z"/>
								<path style="fill:#BEDCE0;" d="M242.923,195.945c-0.434-0.034-0.581-0.096-1.174-0.036c0.055,0.023,0.109,0.038,0.18,0.054
									C242.144,195.902,242.429,195.874,242.923,195.945z"/>
								<path style="fill:#BEDCE0;" d="M225.499,195.947c0.092,0.034,0.214,0.06,0.321,0.09c0.173-0.007,0.374-0.016,0.552-0.024
									L225.499,195.947z"/>
								<path style="fill:#BEDCE0;" d="M351.254,263.361c0.382,0.125,0.619,0.264,0.804,0.4
									C351.789,263.445,354.349,263.332,351.254,263.361z"/>
								<path style="fill:#BEDCE0;" d="M426.683,245.174c-0.112-0.102-0.168-0.251-0.192-0.518c0.008,0.2,0.016,0.392,0.024,0.58
									C426.581,245.286,426.644,245.298,426.683,245.174z"/>
								<path style="fill:#BEDCE0;" d="M242.214,199.46l-2.768-0.066C240.22,199.438,241.226,199.46,242.214,199.46z"/>
								<path style="fill:#BEDCE0;" d="M226.251,263.425l0.635-0.053C226.641,263.361,226.416,263.374,226.251,263.425z"/>
								<path style="fill:#BEDCE0;" d="M231.231,199.46c-0.494-0.157-1.018-0.248-1.559-0.308c-0.115,0.035-0.246,0.063-0.321,0.115
									L231.231,199.46z"/>
								<path style="fill:#BEDCE0;" d="M352.064,263.766c-0.006-0.002-0.006-0.005-0.006-0.005S352.058,263.764,352.064,263.766z"/>
								<path style="fill:#BEDCE0;" d="M370.299,262.708c-2.638-0.013-1.239,0.573-1.799,0.909
									c-3.148,0.166-1.457-0.431-2.529-0.731c-1.966,0.155-3.474,0.693-4.94,0.67c-0.109-0.096-0.394-0.132-0.06-0.252
									c-2.078,0.466-6.17,0.023-8.591,0.608c-0.18-0.052-0.271-0.101-0.316-0.146c0.392,0.294,0.453,0.592,0.372,0.804
									c-1.182,0.01-2.194,0.37-2.639-0.013c0.725,0.011,0.785-0.143,1.124-0.263l-1.239,0.166c-1.116-0.55,1.691-0.19,1.691-0.597
									c-2.416,0.179-5.232,0.634-7.084,0.479c-0.387-0.538,4.329-0.181,1.859-0.66l2.865,0.206
									c-2.189-0.849,1.741,0.059-0.271-0.849c-3.77-0.156-4.217,0.275-7.977,0.117c-0.847,0.299,0.28,0.442-0.567,0.742
									c-5.345,0.538-4.207-1.354-8.137-0.637c-1.017,0.359-1.412,1.04-4.21,0.68l0.954-0.609c-3.65-0.06-2.084,0.875-5.906,0.466
									c0.679-0.239,2.869-0.202,2.316-0.274c-2.477-0.481-1.752,0.345-3.655,0.345l-0.394-0.539
									c-3.886,0.085-8.166,0.474-12.47,0.572c0.238-0.16,0.976-0.329-0.031-0.494c-5.428,0.269-11.587-0.066-16.823-0.386
									l-2,0.465c-0.465-0.005-0.863-0.21-0.359-0.3c-2.04-0.177-0.106,0.295-1.086,0.478c-1.161,0.033-1.534-0.267-0.798-0.407
									c-3.601,0.395-10.257,0.85-14.051,0.352l0.74-0.138c-2.954-0.189-3.334,0.954-6.074,0.52l0.525-0.082
									c-6.412-0.202-13.497,0.224-18.389-0.478c-0.93,0.67-6.346-0.299-6.758,0.636c-3.661-0.463-2.613-0.63-7.769-0.942
									c-1.377-0.043-2.052,0.584-3.755,0.681l-0.042-0.488l-2.311,0.512l-1.23-0.584l-1.597,0.126
									c0.636,0.029,1.352,0.219,1.255,0.36c-2.494,0.221-6.08-0.34-6.142-0.591l-5.901,0.413c0.131-0.197,1.119-0.264,1.901-0.389
									c-3.15,0.498-0.572-0.515-3.459-0.058c0.387,0.111-0.209,0.291-0.274,0.39c-1.439-0.295-4.714-0.298-7.138-0.173
									l0.465-0.337c-4.377-0.086-9.227,0.161-14.14,0.155c1.762,0.157,1.357,0.741-0.083,0.797l-0.576-0.517
									c-0.93,0.32,1.505,0.195-0.405,0.586c-1.835-0.06-1.234-0.587-0.18-0.756l-2.231,0.179
									c-0.131-0.154,0.392-0.236,0.528-0.432c-0.915,0.321-3.851-0.518-5.172,0.039l-0.126-0.154
									c-4.911-0.004-7.138,0.173-11.139,0.199c-0.078,0.446-1.642,0.347-2.834,0.707c-2.939-0.142-6.202-0.493-9.745-0.455
									c-2.489,0.222-0.727,0.378-1.846,0.643c-0.183-0.406-3.721-0.368-1.886-0.66c-0.43,0.007-0.829,0.013-1.202,0.019
									l-0.268,0.005l-0.07,0.004l-0.136,0.009c-0.19,0.016-0.358,0.03-0.516,0.043c-0.015-0.125-0.03-0.246-0.046-0.373
									c-0.01-0.069-0.02-0.14-0.03-0.212l-0.017-0.117c-0.006-0.112-0.012-0.226-0.019-0.342c-0.06-1.061-0.13-2.289-0.22-3.889
									c-0.166,0.583-0.238,1.24-0.377,0.9c-0.067-0.976,0.17-2.22,0.365-2.08l0.042,0.258c-0.609-6.035,1.184-13.929,0.337-18.735
									l0.042,0.269l-0.441-4.984c0.07-2.293,0.305,1.375,0.557-0.322c-0.678-5.376,0.098-8.494-0.353-12.921
									c1.198-3.427-0.084-12.16,0.681-16.786l-0.282,0.267c-0.276-1.195,0.161-1.446,0.226-2.327
									c-0.219,0.125-0.254,1.297-0.407,0.554c-0.029-1.16-0.057-2.333-0.087-3.529c1.529,0.028,3.074,0.056,4.626,0.085
									c2.161,0.07,4.333,0.14,6.508,0.21c4.349,0.163,8.708,0.353,12.999,0.458c3.797,0.076,2.155-1.46,6.942-0.786l-1.359,0.524
									c7.663-0.628,15.67,0.022,23.171-0.511c-0.447,0.121-0.46,0.278-1.192,0.276c1.584,0.38,5.859,0.019,5.886-0.292
									c1.168,0.035,0.271,0.281,0.99,0.439c1.59,0.225,3.989-0.486,4.834-0.107c0.144,0.061-0.447,0.123-0.738,0.153
									c1.036-0.184,4.826,0.047,3.834-0.392c2.816,0.209,5.386-0.195,7.632,0.065c1.465-0.491,4.82,0.236,5.285-0.458
									c-0.202,0.717,4.936,0.578,6.717,0.241c-0.596,0.217,1.548,0.225,0.85,0.525c2.032-0.01,3.893-0.143,3.539-0.512
									c3.743,0.858,7.523-0.691,9.631,0.409c6.035-0.385,11.62-0.646,17.049-0.814c-0.196,0.715-6.001,0.071-5.768,0.822
									c5.15-0.295,8.121-0.908,13.228-0.736c1.322,0.098-0.751,0.31-1.197,0.432c5.145-0.295,9.949,0.065,14.527-0.324
									c-0.013,0.067-0.507,0.139-0.973,0.194c0.903-0.023,2.099,0.105,1.997-0.22l-0.88,0.088
									c-1.441-0.472,3.583-0.985,3.745-1.235c-1.531,0.932,4.522,0.234,2.09,1.411c0.594-0.061,1.339-0.215,1.203-0.432
									c0.881,0.063,1.161,0.19,0.267,0.437c3.232-0.177,2.084-0.522,5.012-0.515c-0.01,0.158-0.601,0.218-0.904,0.403
									c1.482-0.307,2.972-0.614,5.447-0.481c-0.149,0.095,0.138,0.218-0.6,0.216c4.25-0.048,7.243-0.817,11.906-0.521
									c-1.375,0.684,1.586,0.225,1.833,0.817l2.507-0.176l-1.006-0.287c2.196,0.01,4.137-0.421,6.025-0.227l-1.632,0.244
									l4.115-0.112l-2.329-0.225c2.222-0.305-0.238-0.749,2.685-0.584c-0.594,0.061,2.197,0.007,3.341,0.356l-0.007,0.002
									c1.086-0.188,2.204-0.387,3.828-0.24c0.422,0.189-0.339,0.655-0.065,0.78c1.072-0.495,5.143-0.137,6.5-0.664
									c-0.453,0.124-0.476,0.434-0.327,0.498l0.9-0.402c1.017,0.129,1.166,0.191,1.001,0.438c3.06,0.074-0.972-0.751,2.66-0.427
									c-0.285,0.033-0.149,0.093-0.743,0.154c3.648,0.169,7.047-0.255,10.399-0.057c0.989,0.596-2.928,0.146-1.796,0.648
									c4.833-0.108,10.007-0.714,14.683-0.574l-0.871-0.066c0.648-0.841,3.483,0.416,5.848,0.019
									c-0.579,0.062-0.759,0.466-0.603,0.373c3.203,0.135,6.548-0.207,11.4-0.471l-0.601,0.216
									c1.887,0.193,4.97,0.111,7.009,0.209c0.605-0.216,1.771-0.18,1.063-0.495c6.286,1.23,11.991-0.66,17.568,0.365
									c-0.667,0.002-1.59,0.189-1.059,0.19l4.751-0.199c-0.376-0.367-0.623-0.222-1.621-0.507c0.601-0.217,1.942-0.386,3.12-0.386
									c-2.137,0.243,0.019,0.588,0.941,0.793c-0.155-0.112,0.161-0.236,0.083-0.35c2.481,0.652,0.418-0.737,3.802-0.298
									l-0.177,0.192c0.806-0.071,1.626-0.225,2.593-0.283c0.022,0.31,0.03,0.653,0.015,1.02c-0.316,0.553-0.271-0.319-0.371-0.664
									c-0.189,0.035-0.346,0.086-0.438,0.175l0.275-0.013c0.052,0.609,0.243,1.192,0.371,2.002
									c0.129,0.865,0.195,1.71-0.004,2.525c-0.118-0.798-0.12-2.028-0.237-2.765c-0.498,1.815-0.371,2.091-0.45,3.48l0.011-0.138
									l-0.225,3.252l0.135-0.828c1.105,2.404,0.202,4.894,0.925,8.132c-0.685-3.147-0.396-0.52-0.876-0.761
									c-0.133,0.827-0.283,2.084-0.418,1.726c0.387,1.53-0.305,2.555,0.261,4.714c-0.155,0.097-0.015,1.637-0.403,1.292
									c0.121,1.99,0.269-0.47,0.463-0.303c0.528,3.067-0.641,7.209,0.084,11.62c0.298,3.804,0.82,4.507,1.079,8.038
									c-0.247,1.191-0.563-0.976-0.563-0.976c-0.228,1.922-0.186,3.368-0.009,5.179c-0.135-0.367-0.249,0.011-0.423,0.563
									c0.041,1.453,0.563,0.972,0.335,2.889c-0.173-0.329-0.448-0.751-0.621-1.452c0.142,1.713,0.431,3.404,0.57,5.178
									c-0.269,0.47-0.409-1.07-0.585-1.695c0.121,1.993,0.245,5.164,0.671,5.779l0.152-1.278c0.02,0.726-0.366,0.373-0.444-0.162
									c-0.334-1.708,0.148-2.463,0.303-2.56l0.099,1.263c0.907-1.297-0.146-5.072-0.093-7.614l0.66,1.06l-0.547-2.607
									c0.172-0.554,0.54-0.934,0.639,0.322c0.326-1.822-0.234-1.613,0.129-3.179c0.057-0.173,0.088-0.094,0.115,0.066
									l-0.197-1.781c0.139,0.349,0.466-0.296,0.37,0.798c0.381-3.196-0.495-5.154,0.005-6.357l0.041,0.267
									c-0.223-4.434-0.484-0.429-1.052-3.755l1.194-2.238l-0.484-0.436c0.017-0.458,0.054-1.363,0.247-1.195
									c-0.331-1.703-0.211,0.29-0.523-0.698c0.441-2.202-0.206-6.071,0.565-6.568c-0.368-0.79-0.284,2.106-0.54-0.245
									c0.829-0.671-0.142-2.718,0.238-4.729c0.428,0.618,0.201,2.523,0.583,0.51c-0.723-1.214,0.159-3.917,0.02-5.614
									c-0.576-0.08-0.24-3.689-0.432-6.537c0.131,0.048,0.23-2.037,0.345-5.666c-0.765-0.029-1.526-0.058-2.236-0.085
									c-0.368-0.016-0.723-0.031-1.058-0.046c-0.257-0.017-0.5-0.034-0.723-0.049l0.078-0.097
									c-0.513,0.582-3.245,0.472-5.234,0.593c0.078-0.348,0.436-0.486,1.514-0.642l-1.87,0.003
									c-0.441,0.187-1.025,0.285-2.238,0.352l0.47-0.435c-2.489,0.024-5.013,0.512-8.216,0.222
									c-0.18,0.406,2.547,1.13-0.839,1.401c-0.126-0.219-0.251-0.595,0.635-0.685c-0.29,0.029-1.035,0.182-1.62,0.089l1.353-0.369
									c-1.459-0.162-0.763,0.309-1.929,0.274c0.023-0.313-0.863-0.223-0.696-0.472c0.298-0.03,1.017,0.129,1.464,0.007
									c-1.315-0.056-2.904-0.241-3.43-0.479c0.115,0.178,0,0.422-0.963,0.462c-2.489,0.023-0.852-0.377-2.304-0.538
									c-0.603,0.217-2.191-0.008-2.232,0.46c-0.729-0.002-0.863-0.221-1.145-0.347c-1.288,0.206-6.017,0.059-4.565,0.557
									l0.33,0.033c-0.062,0.006-0.135,0.013-0.211,0.02c0.01,0,0,0,0.01,0h-0.01c-4.222,0.465-8.771-0.265-12.961-0.064
									l0.007-0.157c-2.501,0.179-5.566,0.106-7.352,0.442c-0.74,0-1.746-0.286-1.43-0.472c-1.912,0.118-2.126,0.293-4.887,0.035
									c1.922-0.273-0.663-0.242,1.97-0.2c-2.484-0.135-3.046-0.386-5.714,0.042c0.908-0.401-1.87-0.505-3.051-0.385l1.741,0.287
									c-1.328,0.059-2.488,0.023-3.668-0.011l0.638-0.527c-5.083-0.642-9.167,1.092-13.037,0.018
									c-1.345,0.369,2.761,0.26,1.558,0.691c-2.338-0.071-4.774-0.828-5.507-0.83c-3.203-0.292-2.988,0.771-6.34,0.571
									c0.429,0.188,0.833,0.69-1.671,0.867c-2.34-0.07-2.876-0.789-1.399-0.94c0.561-0.016,0.832,0.044,0.808,0.108
									c0.756-0.068,1.748-0.149,0.822-0.353l-0.304,0.188c-1.161-0.192-4.38-0.172-3.624-0.48
									c-1.768,0.179-0.756,0.308,0.554,0.406c-3.001-0.272-4.689-0.008-7.778-0.191c0.491,0.104,0.944,0.325,0.455,0.323
									c-4.531-0.233-1.995,0.357-5.066,0.439c-1.744-0.287,0.625-0.685-2.465-0.444c-1.887-0.194-0.4-0.499,0.35-0.652
									c-2.816,0.363-5.261-0.238-6.869-0.305l1.483-0.152c-0.887,0.09-1.613,0.088-2.353,0.087l0.847,0.376
									c-0.871-0.066-1.608-0.067-1.592-0.224c-0.897,0.247,0.687,0.626-1.094,0.963c-1.161-0.191-3.535,0.205-3.936-0.294
									c3.651,0.169-0.403-0.502,2.687-0.582c-0.596,0.06-1.323,0.057-2.197-0.009c-0.131-0.056,0.124-0.103,0.362-0.132
									c-3.494-0.446-1.606,0.565-5.227,0.553c0.46-0.281-0.839-0.534-1.43-0.474c1.459,0.006,0.698,0.469-0.641,0.685
									c-2.322-0.219-2.523,0.163-3.739,0.137l1.388,0.103c-0.47,0.281-1.631,0.245-3.25,0.333
									c-0.138-0.219,1.47-0.151,0.892-0.247c-1.797,0.495-4.061-0.512-6.566-0.179c-1.161-0.19-0.112-0.529-1.132-0.658
									c-2.808,0.365-3.041-0.385-5.993-0.084c0.851,0.378,0.999,0.286-1.079,0.654l4.853-0.266l-3.114,0.55
									c1.465,0.005,3.091-0.238,3.968-0.173c-1.484,0.308-1.331,0.214-0.63,0.528c-2.004-0.567-3.973,0.33-6.29-0.053l0.071-0.936
									c-3.483-0.418-6.188,0.48-10.71,0.245l1.453,0.163c-0.607,0.372-2.792,0.052-4.257,0.203
									c0.136-0.313-0.779-0.427-1.404-0.622c0.076,0.232-3.31-0.021-3.721,0.604l-2.019-0.412
									c-3.651-0.169-4.167,0.892-7.677,0.785c1.058-0.34-0.538-0.562,1.814-0.805c-1.172-0.003-2.226-0.06-2.244,0.156
									c-0.685-0.196-3.25,0.422-4.327,0.125c-0.494,0.137-0.656,0.465-1.971,0.439c-0.144-0.063,0.005-0.154,0.005-0.154
									c-0.005,0.154-2.06,0.21-0.91,0.557c-3.61-0.977-10.09,0.071-13.233-0.768c-2.558,0.105-5.639,0.206-7.961,0.229
									c0.149-0.094,0.007-0.156,0.446-0.123c-3.203-0.291-1.969,0.899-5.614,0.574c-1.862-0.506,1.936-0.274,0.775-0.465
									c-0.505-1.03-4.399,0.14-6.851-0.461l0.594-0.061c-1.874-0.35-4.574,0.39-7.637,0.317c0,0,0.149-0.091,0.018-0.156
									c-2.095,0.525-6.06,0.699-9.007,0.845c0.917-0.403,1.339-0.213,0.779-0.623c-1.321,0.058,0.387,0.658-2.25,0.772
									c-0.857-0.221-2.759-0.413-3.012-0.85l2.487-0.024c-1.274-0.566-3.219,0.019-4.53-0.079l0.168-0.247
									c-3.812,0.08-3.864,0.703-7.961,0.658l0.423,0.187c-2.238,0.617-1.877-0.347-4.11,0.111l-0.676-0.626
									c-1.477,0.151-5.174,0.605-7.823,0.723c1.501-0.464,4.6-0.701,6.519-0.977c-1.465-0.005-4.976,0.046-5.739,0.355
									c0.59-0.06,1.333-0.214,1.916-0.117c-1.796,0.492-4.16,0.734-7.078,0.723c0.169-0.397-0.586-0.567-1.752-0.649
									c-0.292-0.015-0.609-0.031-0.944-0.047c-0.386-0.009-0.793-0.018-1.211-0.027c-1.085-0.015-2.228-0.031-3.333-0.047
									c-0.024,1.147-0.062,2.255-0.135,3.249c-0.018,0.226-0.039,0.542-0.062,0.673c-0.027,0.148-0.052,0.289-0.076,0.421
									c-0.056,0.264-0.124,0.492-0.205,0.675c0.448,5.161-0.192,10.24-0.12,16.253c0.944-2.133,0.027,1.755,0.996,1.386
									c0.062,1.4,0.047,1.935-0.017,2.06l-0.579,4.245c-0.282,1.006-0.214-1.332-0.431-1.203
									c-0.074,3.067-0.411,1.287-0.668,3.316c0.347-0.416,0.496,1.066,0.364,2.814l0.447-2.462
									c0.516,4.286-0.814,3.704-0.303,8.024l-0.305-1.366c0.18,2.217-0.006,8.177,0.772,10.35
									c-0.112,0.392-0.377,0.91-0.447-0.066c-0.117,5.298,0.829,11.793,0.349,15.91l-0.237-0.402
									c0.034,0.494,0.146,0.924,0.218,1.385c0.036,0.231,0.063,0.469,0.066,0.727c0.001,0.129-0.003,0.263-0.016,0.403
									c-0.02,0.164-0.041,0.336-0.063,0.518c-0.049-0.049-0.108-0.232-0.157-0.242c-0.049-0.013-0.087-0.074-0.094,0.359
									c0.053,0.616,0.215,2.321,0.281,3.944c0.934-0.035,1.824-0.044,2.557,0.004l-2.079,0.267
									c1.107,0.039,2.191,0.058,3.224,0.061c0.372-0.002,0.734-0.004,1.088-0.007c0.275-0.009,0.544-0.018,0.807-0.027
									c1.053-0.049,2.019-0.145,2.958-0.256c1.878-0.222,3.652-0.502,5.819-0.583c-0.011,0.698,4.055,0.925,6.084,1.038
									l-0.071,0.099c6.017,0.086,10.221-0.578,15.793-0.852c3.459,0.758,11.717,0.317,17.275,0.742
									c-0.85-0.127,0.139-0.544,1.127-0.614c1.305,0.141,3.606-0.484,3.399,0.156l-0.465-0.012
									c0.983,0.628,3.664,0.461,5.757,0.478l0.345-0.837c5.476,1.218,14.346-0.447,17.335,0.643
									c1.321-0.209,2.958-0.207,4.268-0.416l-0.071,0.449c3.661,0.115,5.489,0.171,10.014,0.064l-0.923,0.321
									c2.552,0.029,3.223-1.294,5.577-1.321l0.708,0.67c4.453-0.01,8.96,0.578,13.36-0.03c-0.072,0.098-0.203,0.292-0.924,0.319
									c2.096,0.018,8.108,0.454,7.347-0.466c0.052,0.599,4.594,0.059,7-0.205l-0.374,0.442c2.03-0.564,2.095-0.719,4.929-0.875
									c0.672,0.058,0.589,0.354-0.304,0.241c2.238,0.232,1.744-0.418,4.458-0.183l-1.011,0.282
									c2.303,0.034,2.12-0.117,3.388-0.446c1.448-0.177,4.369,0.111,4.709,0.511c0.31-0.244,1.572-0.569,2.929-0.454
									c0.183,0.151-0.311,0.245-0.56,0.29c3.851,0.301,5.726-0.514,8.375-0.08c0.055,0.146,0.228,0.22,0.447,0.264
									c-3.059-0.011-5.523-0.035-5.292-0.067c0,0.407,2.471,0.479,0.505,1.041c1.984-0.307,5.376-0.974,7.785-0.783
									c0.117,0.039,0.231,0.078,0.319,0.141l-0.249,0.046c0.556,0.041,1.054,0.003,1.523-0.066
									c0.769,0.067,1.257,0.117,1.995,0.123c0.285,0.337,2.834,0.181,4.066,0.198c-0.102-0.446,1.511-0.374,0-0.742
									c0.196,0.032-0.233,0.053-1.052,0.072c-0.185,0.013-0.403,0.02-0.525,0.046c0.024-0.011,0.053-0.025,0.084-0.039
									c-0.809,0.008-1.864,0.018-3.063,0.03c0.973-0.226,1.991-0.417,3.353-0.169c0.633-0.286,1.328-0.581,1.72-0.719
									c1.686,0.622,4.937,0.958,5.389,1.341c3.762-0.25,8.864-0.165,11.229-1.002c1.07-0.108,1.23,0.24,1.63,0.372
									c-0.618,0.084-1.352,0.071-1.686,0.191c2.139-0.215,6.337-0.084,6.848-0.668c2.696,0.264-1.515,0.538,2.189,0.443
									l-0.5,0.179c7.287,0.935,11.848-1.493,19.927-0.293c-0.56-0.073-0.839-0.108-0.954-0.206
									c9.211,0.529,18.982-0.496,28.071,0.343c2.584,0.169,2.863-0.204,4.44-0.489l0.56,0.479l2.696-0.552
									c3.823-0.404,6.62,1.175,11.46,0.41l-0.624-0.323c1.738,0.061,5.506-0.19,5.216,0.181c0.178-0.059,0.57-0.336,1.249-0.167
									l0.053,0.25l4.27-0.429c3.31,0.181-0.518,0.994,4.312,1.043c1.796-0.096,5.113-0.729,4.439-0.897
									c-0.725-0.012-1.851-0.156-1.906-0.407l1.642-0.131c0.298-0.738,1.561-1.494-2.471-2.01l-2.809,0.451l-0.905-0.358
									l2.364-0.022c-1.341-0.337-2.192-0.039-3.143,0.166c-0.226-0.19-0.62-0.324-1.177-0.394l-2.758,0.705
									c-0.334-0.289,1.237-0.573-0.614-0.732c-1.292,0.327,1.239,0.647-0.9,0.862c-1.344-0.335-0.952-0.609-2.529-0.322
									c-0.222-0.19,0.112-0.311,0.738-0.395c-1.404,0.228-3.716,0.096-4.44,0.489c-1.401-0.414-4.74,0.108-4.602-0.591
									c-0.441,0.167-2.473,0.549-3.763,0.578c2.356-0.836-4.827-0.049-4.204-0.946c-1.744,0.752-6.299,0.334-9.387,0.751
									c0.173-0.06,0.512-0.181,0.784-0.142c-1.738-0.063-2.244-0.289-3.361-0.431c-0.223,0.621-2.93,0.763-4.39,1.146
									c-2.13-0.599,1.294-0.73,0.625-1.305c0.107,0.504-3.702,0.502-2.977,0.922c-1.63-0.371-1.404-0.18-2.244-0.695
									c-0.286,0.777-1.517,0.132-2.869,0.609c-2.358-0.383-0.607-0.728-3.198-0.492
									C367.995,262.983,370.299,262.708,370.299,262.708z M308.688,264.051v-0.009c0.531-0.01,0.983-0.019,1.272-0.025
									C309.695,264.024,309.328,264.034,308.688,264.051z M303.511,264.058c0.63,0.017,1.415,0.02,2.246,0.017
									c0.182,0.154-0.015,0.312-0.536,0.304C305.503,264.276,304.283,264.188,303.511,264.058z M314.462,267.146
									c-0.819,0.063-1.094-0.024-1.206-0.116c0.387-0.014,0.839-0.031,1.433-0.053c0.024-0.017,0.073-0.036,0.097-0.055
									C314.708,267.008,314.618,267.087,314.462,267.146z"/>
								<path style="fill:#BEDCE0;" d="M315.936,266.562c0.118-0.01,0.184-0.029,0.338-0.033c-0.168-0.039-0.327-0.073-0.489-0.1
									c-0.1,0.048-0.201,0.097-0.29,0.14C315.643,266.566,315.797,266.564,315.936,266.562z"/>
								<path style="fill:#BEDCE0;" d="M392.836,196.557l-0.109-0.01c0.091,0.017,0.174,0.035,0.229,0.063
									C392.883,196.589,392.883,196.575,392.836,196.557z"/>
								<polygon style="fill:#BEDCE0;" points="232.017,263.205 232.024,263.318 232.477,263.219 								"/>
								<path style="fill:#BEDCE0;" d="M421.352,198.087c0.054,0.039,0.161,0.08,0.374,0.114
									C421.71,198.172,421.549,198.131,421.352,198.087z"/>
								<path style="fill:#BEDCE0;" d="M426.815,203.109l-0.159,1.742C426.746,204.097,426.789,203.548,426.815,203.109z"/>
								<path style="fill:#BEDCE0;" d="M426.594,212.579c0.078,0.12,0.137,0.154,0.191,0.185l0.003-0.019L426.594,212.579z"/>
								<path style="fill:#BEDCE0;" d="M292.558,198.931c-0.127,0.002-0.253,0.008-0.365,0.02
									C291.335,199.038,291.918,199.004,292.558,198.931z"/>
								<path style="fill:#BEDCE0;" d="M337.37,197.89c-0.475,0.081-0.944,0.16-1.441,0.21
									C336.727,198.135,337.347,198.144,337.37,197.89z"/>
								<path style="fill:#BEDCE0;" d="M242.518,199.468c0.005-0.003,0-0.004,0.005-0.008c-0.107,0-0.202,0-0.309,0L242.518,199.468
									z"/>
								<path style="fill:#BEDCE0;" d="M333.845,198.093c0.798,0.089,1.464,0.07,2.084,0.008
									C335.275,198.071,334.505,198.025,333.845,198.093z"/>
								<path style="fill:#BEDCE0;" d="M426.391,253.628l-0.018,0.456c0.03-0.008,0.053,0.019,0.072,0.054L426.391,253.628z"/>
								<path style="fill:#BEDCE0;" d="M426.445,254.138l0.053,0.507C426.497,254.412,426.494,254.21,426.445,254.138z"/>
								<path style="fill:#BEDCE0;" d="M426.61,255.711l-0.112-1.066C426.496,255.014,426.482,255.469,426.61,255.711z"/>
								<path style="fill:#BEDCE0;" d="M426.597,241.09l-0.162-0.144C426.469,241.025,426.522,241.075,426.597,241.09z"/>
								<path style="fill:#BEDCE0;" d="M426.551,237.28c-0.037,0.909-0.345,2.28-0.243,3.548l0.129,0.118
									C426.195,240.35,426.823,238.143,426.551,237.28z"/>
								<path style="fill:#BEDCE0;" d="M428.548,221.378l-0.129,3.192c0.172-0.558,0.404-1.292,0.445,0.16
									C429.378,220.706,428.479,225.561,428.548,221.378z"/>
								<path style="fill:#BEDCE0;" d="M428.798,211.478c0.08,1.715,0.25-0.02,0.347,0.071
									C428.988,210.461,428.949,210.197,428.798,211.478z"/>
								<path style="fill:#BEDCE0;" d="M370.501,196.202l0.173-0.406C369.351,195.855,370.661,195.953,370.501,196.202z"/>
								<polygon style="fill:#BEDCE0;" points="356.826,198.298 358.112,198.55 358.724,198.178 								"/>
								<polygon style="fill:#BEDCE0;" points="348.747,195.409 349.324,195.351 347.119,195.498 								"/>
								<path style="fill:#BEDCE0;" d="M228.598,195.553l0.4,0.499C229.891,195.963,230.079,195.402,228.598,195.553z"/>
								<path style="fill:#BEDCE0;" d="M176.729,196.062c-0.565-0.25-2.024-0.41-2.923-0.165
									C174.972,195.931,176.135,196.126,176.729,196.062z"/>
								<polygon style="fill:#BEDCE0;" points="218.261,267.21 217.217,267.378 219.183,267.238 								"/>
							</g>
						</g>
					</g>
				</g>
			</g>
			<g>
				<g>
					<g>
						<g>
							<g>
								<path style="fill:#BEDCE0;" d="M426.863,328.978c0.119,0.342,0.388,0.149,0.335-0.795l-0.457-0.671L426.863,328.978z"/>
								<path style="fill:#BEDCE0;" d="M427.709,322.624c-0.221-1.111-0.61-2.392-1.03-1.672c0.439,1.1,0.256,1.366,0.778,2.551
									c0.053,0.945-0.146,1.65-0.315,1.49c0.117,0.334-0.1,1.468,0.186,1.977c0.354-1.23,0.368-2.788,0.076-4.415
									C427.506,322.205,427.625,322.544,427.709,322.624z"/>
								<path style="fill:#BEDCE0;" d="M380.607,276.814l0.595,0.054C381.04,276.839,380.836,276.822,380.607,276.814z"/>
								<path style="fill:#BEDCE0;" d="M323.393,276.564c0.436-0.011,0.618-0.056,0.64-0.098
									C323.628,276.496,323.296,276.524,323.393,276.564z"/>
								<path style="fill:#BEDCE0;" d="M313.624,276.06c0.21,0.011,0.386,0.021,0.576,0.031
									C313.981,276.049,313.76,276.026,313.624,276.06z"/>
								<path style="fill:#BEDCE0;" d="M380.607,276.814l-1.528-0.144C378.972,276.82,379.862,276.781,380.607,276.814z"/>
								<path style="fill:#BEDCE0;" d="M426.607,309.89c0.022,0.32,0.065,0.586,0.12,0.83c-0.016-0.263-0.032-0.517-0.048-0.78
									C426.655,309.926,426.633,309.914,426.607,309.89z"/>
								<path style="fill:#BEDCE0;" d="M405.83,276.444l0.465-0.001c0.137-0.052,0.265-0.115,0.386-0.186L405.83,276.444z"/>
								<path style="fill:#BEDCE0;" d="M425.186,276.374c-0.438-0.017-0.59,0.371-0.758,0.54c0.247-0.16,0.571-0.236,0.955-0.266
									C425.39,276.575,425.332,276.487,425.186,276.374z"/>
								<path style="fill:#BEDCE0;" d="M428.179,305.552l0.053,0.545C428.219,305.954,428.195,305.716,428.179,305.552z"/>
								<path style="fill:#BEDCE0;" d="M391.975,276.36c-0.033-0.058-0.102-0.108-0.176-0.138
									C391.799,276.27,391.868,276.316,391.975,276.36z"/>
								<path style="fill:#BEDCE0;" d="M405.344,327.158c-0.016,0.028,0.006,0.045,0.001,0.069
									C405.458,327.188,405.493,327.16,405.344,327.158z"/>
								<path style="fill:#BEDCE0;" d="M427.781,329.078l-0.311,0.021c-0.033,0.073-0.067,0.146-0.067,0.217L427.781,329.078z"/>
								<path style="fill:#BEDCE0;" d="M295.747,275.564c0.035,0.003,0.047,0.004,0.079,0.007
									C296.297,275.527,296.03,275.535,295.747,275.564z"/>
								<path style="fill:#BEDCE0;" d="M152.121,299.552c0.347-1.859,0.445,3.026,0.83,0.227
									C152.799,300.039,152.346,297.234,152.121,299.552z"/>
								<path style="fill:#BEDCE0;" d="M426.658,309.388c-0.001-0.261-0.002-0.527-0.004-0.793
									C426.642,308.956,426.643,309.2,426.658,309.388z"/>
								<path style="fill:#BEDCE0;" d="M152.951,299.778h0.003l0.036-0.289C152.974,299.609,152.965,299.676,152.951,299.778z"/>
								<path style="fill:#BEDCE0;" d="M254.555,275.797c0.084,0.068,0.249,0.12,0.42,0.17
									C254.961,275.927,254.866,275.878,254.555,275.797z"/>
								<path style="fill:#BEDCE0;" d="M285.242,276.349l-0.759-0.052C284.784,276.332,285.028,276.344,285.242,276.349z"/>
								<path style="fill:#BEDCE0;" d="M238.622,276.344c-0.413-0.03-0.553-0.083-1.117-0.031c0.052,0.02,0.104,0.033,0.171,0.047
									C237.88,276.307,238.152,276.282,238.622,276.344z"/>
								<path style="fill:#BEDCE0;" d="M222.038,276.346c0.088,0.03,0.204,0.052,0.306,0.078c0.164-0.007,0.356-0.014,0.525-0.021
									L222.038,276.346z"/>
								<path style="fill:#BEDCE0;" d="M354.944,327.344c0.363,0.109,0.589,0.229,0.766,0.348
									C355.454,327.417,357.89,327.319,354.944,327.344z"/>
								<path style="fill:#BEDCE0;" d="M426.826,309.881c-0.098-0.097-0.146-0.239-0.167-0.493c0.007,0.19,0.014,0.373,0.021,0.552
									C426.737,309.988,426.791,309.999,426.826,309.881z"/>
								<path style="fill:#BEDCE0;" d="M237.948,279.404l-2.635-0.057C236.049,279.384,237.007,279.404,237.948,279.404z"/>
								<path style="fill:#BEDCE0;" d="M235.968,327.4l0.605-0.047C236.34,327.344,236.126,327.355,235.968,327.4z"/>
								<path style="fill:#BEDCE0;" d="M227.493,279.404c-0.47-0.137-0.969-0.216-1.484-0.268c-0.109,0.031-0.234,0.055-0.306,0.1
									L227.493,279.404z"/>
								<path style="fill:#BEDCE0;" d="M355.715,327.697c-0.006-0.001-0.006-0.004-0.006-0.004S355.709,327.695,355.715,327.697z"/>
								<path style="fill:#BEDCE0;" d="M373.071,326.776c-2.511-0.011-1.179,0.499-1.712,0.791
									c-2.997,0.145-1.387-0.375-2.407-0.636c-1.871,0.135-3.306,0.603-4.702,0.583c-0.104-0.084-0.375-0.115-0.057-0.22
									c-1.978,0.405-5.872,0.02-8.177,0.529c-0.171-0.045-0.258-0.088-0.301-0.127c0.373,0.255,0.431,0.515,0.354,0.7
									c-1.125,0.009-2.089,0.322-2.512-0.011c0.69,0.01,0.747-0.125,1.07-0.229l-1.179,0.144c-1.062-0.479,1.61-0.165,1.61-0.52
									c-2.3,0.156-4.98,0.552-6.742,0.417c-0.368-0.469,4.121-0.158,1.769-0.574l2.727,0.179
									c-2.084-0.739,1.657,0.052-0.258-0.739c-3.588-0.136-4.014,0.239-7.593,0.102c-0.806,0.26,0.266,0.385-0.54,0.646
									c-5.087,0.468-4.004-1.178-7.745-0.554c-0.968,0.312-1.344,0.905-4.007,0.592l0.908-0.53
									c-3.474-0.052-1.983,0.762-5.621,0.405c0.647-0.208,2.73-0.176,2.205-0.239c-2.357-0.418-1.667,0.301-3.479,0.301
									l-0.375-0.469c-3.699,0.074-7.773,0.413-11.869,0.498c0.227-0.139,0.929-0.286-0.03-0.43
									c-5.166,0.234-11.028-0.057-16.012-0.336l-1.904,0.405c-0.443-0.004-0.822-0.183-0.342-0.261
									c-1.942-0.154-0.1,0.257-1.034,0.416c-1.105,0.028-1.46-0.233-0.759-0.354c-3.427,0.343-9.763,0.74-13.373,0.306l0.704-0.12
									c-2.812-0.164-3.173,0.83-5.781,0.452l0.5-0.072c-6.103-0.176-12.847,0.195-17.503-0.416
									c-0.885,0.583-6.04-0.26-6.432,0.553c-3.485-0.403-2.487-0.549-7.394-0.82c-1.31-0.037-1.953,0.508-3.574,0.593l-0.04-0.425
									l-2.2,0.446l-1.171-0.509l-1.52,0.109c0.606,0.025,1.287,0.191,1.195,0.313c-2.374,0.193-5.787-0.296-5.846-0.514
									l-5.617,0.36c0.125-0.171,1.065-0.23,1.809-0.339c-2.998,0.434-0.545-0.448-3.292-0.05c0.368,0.097-0.199,0.253-0.261,0.339
									c-1.37-0.257-4.487-0.259-6.794-0.151l0.443-0.293c-4.166-0.075-8.783,0.141-13.458,0.135
									c1.677,0.137,1.292,0.645-0.079,0.694l-0.548-0.45c-0.885,0.278,1.432,0.17-0.385,0.51
									c-1.747-0.052-1.174-0.511-0.171-0.658l-2.123,0.156c-0.125-0.134,0.373-0.205,0.503-0.376
									c-0.871,0.279-3.665-0.451-4.923,0.034l-0.12-0.134c-4.674-0.004-6.794,0.151-10.601,0.173
									c-0.074,0.388-1.563,0.302-2.698,0.616c-2.798-0.124-5.903-0.429-9.275-0.396c-2.369,0.193-0.692,0.329-1.757,0.559
									c-0.174-0.353-3.541-0.32-1.795-0.574c-4.046,0.058-5.168,0.071-10.285,0.358c0.555,0.144,1.18,0.207,0.856,0.328
									c-0.928,0.058-2.113-0.148-1.98-0.318l0.245-0.037c-0.917,0.085-1.879,0.116-2.867,0.112l-0.746-0.009l-0.354-0.021
									c-0.215-0.018-0.417-0.042-0.595-0.07c0.031-0.251,0.066-0.484,0.104-0.69l0.029-0.149l0.015-0.08l0.015-0.204l0.059-0.813
									c0.072-1.081,0.143-2.146,0.211-3.171c0.108-2.052,0.124-3.95-0.127-5.506l0.037,0.256l-0.384-4.743
									c0.061-2.182,0.265,1.309,0.484-0.306c-0.59-5.117,0.085-8.084-0.308-12.298c1.043-3.262-0.073-11.574,0.592-15.976
									l-0.246,0.254c-0.241-1.137,0.14-1.376,0.197-2.215c-0.191,0.119-0.221,1.234-0.354,0.528
									c-0.025-1.153-0.05-2.318-0.075-3.506c1.504,0.024,3.023,0.049,4.551,0.074c2.056,0.061,4.124,0.122,6.194,0.183
									c4.14,0.142,8.288,0.307,12.372,0.399c3.614,0.066,2.051-1.27,6.607-0.684l-1.293,0.456
									c7.294-0.546,14.914,0.019,22.054-0.445c-0.426,0.105-0.438,0.242-1.135,0.24c1.508,0.331,5.577,0.016,5.602-0.254
									c1.112,0.031,0.258,0.244,0.943,0.382c1.513,0.195,3.797-0.423,4.601-0.093c0.137,0.053-0.425,0.107-0.702,0.133
									c0.986-0.16,4.593,0.041,3.649-0.341c2.68,0.182,5.126-0.17,7.264,0.056c1.394-0.427,4.587,0.205,5.03-0.398
									c-0.192,0.624,4.698,0.503,6.393,0.21c-0.567,0.189,1.473,0.196,0.809,0.457c1.934-0.009,3.706-0.125,3.369-0.445
									c3.563,0.747,7.161-0.601,9.166,0.356c5.744-0.335,11.06-0.563,16.226-0.708c-0.186,0.622-5.711,0.062-5.49,0.715
									c4.902-0.256,7.729-0.791,12.59-0.64c1.259,0.085-0.715,0.27-1.14,0.376c4.897-0.256,9.469,0.057,13.826-0.282
									c-0.012,0.058-0.482,0.121-0.926,0.169c0.859-0.02,1.997,0.092,1.9-0.192l-0.837,0.077c-1.371-0.411,3.41-0.858,3.564-1.075
									c-1.458,0.811,4.304,0.204,1.989,1.228c0.565-0.053,1.274-0.187,1.145-0.376c0.839,0.055,1.105,0.165,0.254,0.381
									c3.076-0.154,1.983-0.455,4.77-0.448c-0.01,0.137-0.572,0.19-0.861,0.351c1.411-0.267,2.829-0.534,5.184-0.418
									c-0.142,0.082,0.132,0.19-0.571,0.188c4.045-0.041,6.894-0.711,11.332-0.453c-1.309,0.595,1.509,0.196,1.745,0.711
									l2.386-0.153l-0.958-0.25c2.09,0.009,3.937-0.367,5.734-0.198l-1.553,0.212l3.917-0.098l-2.217-0.195
									c2.115-0.266-0.227-0.652,2.555-0.508c-0.565,0.053,2.091,0.006,3.18,0.31l-0.007,0.001
									c1.034-0.164,2.098-0.337,3.643-0.209c0.402,0.165-0.323,0.57-0.062,0.679c1.02-0.431,4.895-0.119,6.187-0.578
									c-0.431,0.108-0.453,0.378-0.312,0.434l0.856-0.35c0.968,0.112,1.11,0.166,0.953,0.382c2.912,0.064-0.925-0.653,2.531-0.372
									c-0.271,0.028-0.142,0.081-0.707,0.134c3.472,0.147,6.707-0.222,9.897-0.05c0.941,0.518-2.787,0.127-1.71,0.564
									c4.6-0.094,9.524-0.621,13.975-0.499l-0.829-0.057c0.617-0.732,3.315,0.362,5.565,0.017
									c-0.551,0.054-0.722,0.406-0.574,0.324c3.048,0.118,6.232-0.18,10.851-0.41l-0.572,0.188
									c1.796,0.168,4.731,0.097,6.671,0.182c0.576-0.188,1.686-0.157,1.011-0.431c5.983,1.071,11.412-0.574,16.721,0.318
									c-0.635,0.002-1.513,0.164-1.008,0.165l4.522-0.173c-0.358-0.319-0.593-0.193-1.543-0.441
									c0.572-0.189,1.849-0.336,2.969-0.336c-2.033,0.211,0.018,0.512,0.896,0.69c-0.147-0.098,0.154-0.205,0.079-0.305
									c2.362,0.567,0.396-0.641,3.621-0.259l-0.171,0.167c1.207-0.086,2.319-0.307,3.621-0.259
									c0.54,0.369-1.285,0.172-1.368,0.476c1.828-0.021,3.607-0.699,5.262-0.331c-0.776,0.103-1.893,0.104-2.669,0.207
									c1.802,0.433,2.011,0.323,3.349,0.392l-0.132-0.01l3.095,0.196l-0.788-0.118c0.841-0.354,1.694-0.471,2.589-0.509
									c0.22-0.005,0.443-0.011,0.669-0.016c0.19,0,0.383-0.001,0.579-0.001c0.392,0.001,0.791,0.001,1.232-0.017
									c0.027,0.586,0.094,1.156,0.261,1.939c-0.149-0.719-0.245-0.984-0.312-1.107c-0.067-0.115-0.104-0.065-0.136,0.036
									c-0.064,0.211-0.105,0.623-0.314,0.6c-0.028,0.12-0.059,0.257-0.089,0.39c-0.033,0.215-0.065,0.425-0.092,0.601
									c-0.062,0.355-0.124,0.569-0.182,0.398c0.337,1.456-0.266,2.432,0.227,4.487c-0.135,0.092-0.013,1.558-0.351,1.229
									c0.106,1.894,0.234-0.448,0.403-0.288c0.46,2.919-0.557,6.861,0.073,11.06c0.26,3.621,0.714,4.29,0.94,7.65
									c-0.215,1.134-0.49-0.928-0.49-0.928c-0.198,1.829-0.162,3.206-0.008,4.929c-0.117-0.349-0.217,0.011-0.368,0.536
									c0.035,1.383,0.49,0.925,0.292,2.749c-0.15-0.313-0.39-0.715-0.54-1.382c0.124,1.63,0.375,3.24,0.496,4.928
									c-0.234,0.448-0.356-1.018-0.509-1.613c0.106,1.897,0.213,4.915,0.584,5.5l0.132-1.217c0.018,0.691-0.319,0.355-0.386-0.154
									c-0.291-1.625,0.129-2.344,0.264-2.436l0.086,1.202c0.789-1.235-0.127-4.828-0.081-7.247l0.574,1.009l-0.476-2.482
									c0.15-0.528,0.47-0.889,0.556,0.306c0.284-1.734-0.204-1.535,0.112-3.026c0.049-0.164,0.077-0.09,0.1,0.062l-0.171-1.695
									c0.121,0.332,0.405-0.282,0.322,0.759c0.331-3.042-0.431-4.906,0.004-6.051l0.035,0.254
									c-0.194-4.221-0.421-0.408-0.916-3.574l1.039-2.13l-0.421-0.415c0.015-0.436,0.047-1.297,0.215-1.137
									c-0.288-1.621-0.183,0.276-0.455-0.664c0.384-2.096-0.18-5.779,0.491-6.251c-0.32-0.752-0.247,2.004-0.47-0.233
									c0.722-0.638-0.124-2.587,0.208-4.501c0.373,0.588,0.175,2.402,0.508,0.486c-0.09-0.166-0.152-0.361-0.192-0.578
									c-0.04-0.206-0.057-0.551-0.059-0.851c-0.005-0.628,0.052-1.359,0.116-2.169c-0.501-0.047-1.035-0.098-1.572-0.131
									c-0.509-0.033-1.133-0.047-1.479-0.022c-0.076,0.501-3.512,0.209-6.221,0.376c0.171-0.169-5.099-0.276-7.62-0.457
									l0.074-0.084c-0.488,0.507-3.089,0.411-4.982,0.516c0.074-0.303,0.415-0.423,1.441-0.559l-1.78,0.002
									c-0.42,0.162-0.975,0.248-2.13,0.306l0.448-0.379c-2.369,0.021-4.771,0.446-7.819,0.193
									c-0.171,0.353,2.424,0.984-0.799,1.22c-0.12-0.191-0.239-0.518,0.605-0.596c-0.276,0.025-0.985,0.159-1.542,0.077
									l1.288-0.321c-1.388-0.141-0.726,0.269-1.836,0.238c0.022-0.272-0.822-0.194-0.662-0.411
									c0.283-0.026,0.968,0.112,1.393,0.006c-1.251-0.049-2.764-0.21-3.264-0.417c0.109,0.155,0,0.367-0.917,0.402
									c-2.369,0.02-0.811-0.328-2.193-0.468c-0.574,0.189-2.085-0.007-2.125,0.401c-0.693-0.002-0.822-0.192-1.089-0.302
									c-1.226,0.18-5.727,0.051-4.345,0.484l0.315,0.029c-0.059,0.005-0.128,0.011-0.2,0.018c0.01,0,0,0,0.01,0h-0.01
									c-4.019,0.405-8.348-0.231-12.336-0.056l0.006-0.137c-2.38,0.156-5.298,0.092-6.998,0.385c-0.704,0-1.661-0.249-1.361-0.411
									c-1.819,0.102-2.023,0.255-4.652,0.031c1.829-0.238-0.631-0.211,1.875-0.174c-2.364-0.117-2.9-0.336-5.438,0.037
									c0.864-0.349-1.78-0.44-2.904-0.335l1.657,0.25c-1.264,0.051-2.368,0.02-3.491-0.01l0.607-0.459
									c-4.838-0.559-8.725,0.95-12.408,0.015c-1.28,0.321,2.628,0.226,1.483,0.602c-2.225-0.062-4.544-0.721-5.241-0.722
									c-3.048-0.254-2.844,0.671-6.034,0.497c0.408,0.163,0.793,0.601-1.591,0.755c-2.227-0.061-2.737-0.687-1.331-0.818
									c0.534-0.014,0.792,0.038,0.769,0.094c0.719-0.059,1.664-0.13,0.782-0.307l-0.289,0.164
									c-1.105-0.167-4.169-0.15-3.449-0.418c-1.683,0.156-0.72,0.268,0.527,0.353c-2.857-0.237-4.463-0.007-7.403-0.166
									c0.467,0.09,0.898,0.283,0.433,0.281c-4.313-0.203-1.899,0.311-4.821,0.382c-1.66-0.25,0.595-0.596-2.347-0.387
									c-1.796-0.169-0.38-0.435,0.334-0.568c-2.68,0.316-5.007-0.207-6.538-0.265l1.412-0.132
									c-0.844,0.078-1.535,0.076-2.24,0.076l0.806,0.328c-0.829-0.057-1.531-0.058-1.515-0.195
									c-0.854,0.215,0.654,0.545-1.041,0.838c-1.105-0.167-3.365,0.178-3.747-0.256c3.475,0.147-0.384-0.437,2.557-0.507
									c-0.567,0.052-1.259,0.05-2.091-0.008c-0.125-0.049,0.117-0.09,0.344-0.115c-3.325-0.388-1.529,0.492-4.975,0.481
									c0.438-0.245-0.799-0.465-1.361-0.412c1.389,0.005,0.664,0.409-0.61,0.596c-2.21-0.191-2.402,0.142-3.559,0.12l1.321,0.09
									c-0.448,0.245-1.552,0.213-3.093,0.29c-0.132-0.191,1.399-0.131,0.849-0.215c-1.71,0.431-3.865-0.446-6.25-0.156
									c-1.105-0.166-0.107-0.46-1.077-0.573c-2.673,0.318-2.895-0.336-5.704-0.073c0.81,0.329,0.951,0.249-1.027,0.57l4.619-0.232
									l-2.964,0.479c1.394,0.005,2.941-0.207,3.777-0.151c-1.412,0.268-1.267,0.187-0.6,0.46
									c-1.907-0.494-3.781,0.288-5.986-0.046l0.067-0.815c-3.315-0.363-5.889,0.418-10.193,0.213l1.383,0.142
									c-0.577,0.324-2.657,0.045-4.051,0.177c0.13-0.273-0.741-0.372-1.336-0.541c0.072,0.202-3.15-0.018-3.541,0.526
									l-1.922-0.359c-3.475-0.147-3.966,0.776-7.307,0.683c1.006-0.296-0.512-0.489,1.726-0.701
									c-1.116-0.003-2.118-0.053-2.136,0.136c-0.652-0.17-3.093,0.367-4.119,0.108c-0.47,0.12-0.624,0.405-1.876,0.382
									c-0.137-0.055,0.005-0.134,0.005-0.134c-0.005,0.134-1.96,0.183-0.866,0.485c-3.436-0.85-9.603,0.062-12.595-0.668
									c-2.434,0.091-5.367,0.179-7.577,0.199c0.142-0.082,0.007-0.136,0.425-0.108c-3.048-0.253-1.874,0.782-5.343,0.499
									c-1.772-0.44,1.842-0.238,0.737-0.405c-0.481-0.896-4.187,0.122-6.521-0.401l0.565-0.053
									c-1.784-0.305-4.354,0.34-7.269,0.276c0,0,0.142-0.079,0.017-0.135c-1.994,0.457-5.768,0.608-8.573,0.735
									c0.873-0.351,1.274-0.186,0.742-0.542c-1.257,0.051,0.368,0.572-2.141,0.672c-0.816-0.192-2.626-0.36-2.866-0.74
									l2.367-0.021c-1.213-0.492-3.064,0.017-4.311-0.069l0.159-0.215c-3.628,0.07-3.678,0.612-7.577,0.573l0.403,0.163
									c-2.13,0.537-1.786-0.302-3.912,0.097l-0.643-0.545c-1.406,0.131-4.925,0.526-7.446,0.629
									c1.429-0.404,4.378-0.61,6.204-0.85c-1.394-0.004-4.736,0.04-5.462,0.309c0.562-0.053,1.269-0.186,1.824-0.102
									c-1.71,0.428-3.959,0.639-6.736,0.629c0.161-0.345-0.557-0.493-1.667-0.565c-0.579-0.036-1.154-0.052-1.951-0.065
									c-1.031-0.013-2.118-0.027-3.169-0.04c-0.021,1.094-0.054,2.151-0.117,3.104c-0.016,0.276-0.034,0.375-0.053,0.526
									c-0.023,0.141-0.046,0.275-0.066,0.4c-0.049,0.251-0.108,0.468-0.179,0.642c0.39,4.913-0.167,9.746-0.104,15.469
									c0.822-2.03,0.023,1.671,0.867,1.32c0.054,1.333,0.04,1.841-0.015,1.96l-0.504,4.04c-0.246,0.958-0.186-1.268-0.375-1.145
									c-0.065,2.919-0.358,1.225-0.582,3.156c0.302-0.396,0.432,1.015,0.317,2.679l0.389-2.343
									c0.449,4.079-0.708,3.526-0.263,7.637l-0.266-1.3c0.157,2.11-0.005,7.783,0.672,9.851c-0.097,0.373-0.328,0.866-0.389-0.062
									c-0.043,2.289,0.077,3.736,0.2,8.265c2.111-0.071,4.188-0.141,6.12-0.206c1.436-0.035,2.764-0.018,3.901,0.103l-0.382,0.206
									c0.941-0.06,1.638-0.388,2.815-0.18c-0.061,0.085-0.379,0.206,0.057,0.218c0.498-0.071,2.499-0.362,3.745-0.241
									l-1.065,0.232c4.918,0.27,7.548-0.565,11.672-0.707c-0.011,0.607,3.859,0.805,5.791,0.903l-0.067,0.086
									c5.727,0.075,9.728-0.503,15.032-0.742c3.292,0.659,11.152,0.276,16.442,0.646c-0.809-0.111,0.132-0.473,1.072-0.534
									c1.242,0.123,3.432-0.421,3.235,0.136l-0.443-0.011c0.936,0.546,3.488,0.401,5.48,0.416l0.329-0.729
									c5.212,1.06,13.655-0.389,16.499,0.56c1.257-0.182,2.815-0.18,4.062-0.362l-0.067,0.391c3.485,0.1,5.224,0.149,9.531,0.056
									l-0.878,0.279c2.429,0.025,3.067-1.126,5.308-1.149l0.674,0.583c4.238-0.009,8.528,0.503,12.716-0.026
									c-0.069,0.085-0.193,0.254-0.88,0.278c1.995,0.015,7.717,0.395,6.993-0.406c0.05,0.521,4.373,0.051,6.662-0.179
									l-0.356,0.384c1.932-0.491,1.994-0.626,4.692-0.762c0.64,0.05,0.56,0.308-0.289,0.21c2.131,0.202,1.66-0.364,4.243-0.159
									l-0.963,0.246c2.192,0.03,2.018-0.102,3.225-0.388c1.378-0.154,4.158,0.097,4.482,0.445
									c0.295-0.212,1.496-0.495,2.788-0.395c0.174,0.131-0.296,0.213-0.533,0.253c3.665,0.262,5.45-0.447,7.971-0.069
									c0.052,0.127,0.217,0.191,0.426,0.229c-2.912-0.01-5.257-0.03-5.037-0.058c0,0.355,2.352,0.417,0.481,0.906
									c1.888-0.267,5.117-0.848,7.409-0.681c0.111,0.034,0.22,0.068,0.303,0.123l-0.237,0.04c0.529,0.035,1.003,0.002,1.449-0.057
									c0.732,0.058,1.196,0.101,1.899,0.107c0.271,0.293,2.697,0.158,3.87,0.172c-0.097-0.388,1.438-0.326,0-0.646
									c0.186,0.028-0.222,0.046-1.001,0.063c-0.176,0.012-0.384,0.017-0.5,0.04c0.023-0.01,0.051-0.022,0.08-0.034
									c-0.77,0.007-1.774,0.016-2.915,0.026c0.927-0.197,1.895-0.363,3.191-0.148c0.602-0.249,1.264-0.505,1.637-0.626
									c1.605,0.541,4.699,0.833,5.129,1.167c3.581-0.218,8.436-0.144,10.688-0.872c1.018-0.094,1.171,0.209,1.551,0.323
									c-0.588,0.073-1.287,0.062-1.605,0.167c2.036-0.187,6.032-0.073,6.517-0.582c2.566,0.23-1.442,0.469,2.084,0.385
									l-0.476,0.156c6.936,0.814,11.276-1.299,18.966-0.255c-0.533-0.064-0.799-0.094-0.908-0.179
									c8.767,0.461,18.066-0.432,26.717,0.298c2.459,0.147,2.725-0.178,4.226-0.425l0.533,0.417l2.566-0.481
									c3.638-0.352,6.301,1.022,10.907,0.357l-0.594-0.281c1.655,0.053,5.241-0.165,4.964,0.157
									c0.169-0.051,0.543-0.292,1.189-0.146l0.05,0.218l4.064-0.374c3.15,0.158-0.493,0.865,4.104,0.908
									c1.709-0.084,4.866-0.635,4.225-0.78c-0.69-0.011-1.762-0.136-1.814-0.354l1.563-0.113c0.283-0.643,1.485-1.3-2.352-1.749
									l-2.674,0.393l-0.861-0.312l2.25-0.02c-1.276-0.293-2.086-0.034-2.992,0.144c-0.215-0.166-0.59-0.282-1.121-0.343
									l-2.625,0.613c-0.318-0.251,1.177-0.499-0.584-0.637c-1.23,0.285,1.179,0.564-0.856,0.75
									c-1.279-0.292-0.906-0.53-2.407-0.28c-0.211-0.165,0.107-0.271,0.702-0.344c-1.336,0.198-3.536,0.084-4.226,0.425
									c-1.333-0.36-4.512,0.094-4.38-0.514c-0.42,0.146-2.354,0.477-3.581,0.503c2.242-0.728-4.595-0.043-4.002-0.823
									c-1.659,0.655-5.995,0.291-8.934,0.654c0.164-0.052,0.487-0.157,0.746-0.124c-1.655-0.054-2.135-0.252-3.198-0.375
									c-0.213,0.541-2.789,0.664-4.178,0.998c-2.028-0.521,1.232-0.635,0.595-1.136c0.102,0.438-3.524,0.437-2.834,0.802
									c-1.551-0.323-1.337-0.157-2.135-0.605c-0.272,0.676-1.444,0.115-2.73,0.53c-2.245-0.333-0.578-0.633-3.043-0.428
									C370.878,327.015,373.071,326.776,373.071,326.776z M314.431,327.944v-0.008c0.505-0.009,0.936-0.017,1.211-0.022
									C315.389,327.921,315.04,327.93,314.431,327.944z M309.503,327.951c0.6,0.004,1.347,0.01,2.138,0.015
									c0.173,0.134-0.014,0.272-0.51,0.265C311.4,328.141,310.238,328.064,309.503,327.951z M319.926,330.638
									c-0.78,0.055-1.041-0.021-1.148-0.101c0.368-0.012,0.799-0.027,1.364-0.046c0.023-0.014,0.069-0.031,0.092-0.047
									C320.16,330.518,320.075,330.587,319.926,330.638z"/>
								<path style="fill:#BEDCE0;" d="M321.329,330.13c0.113-0.009,0.175-0.025,0.322-0.028c-0.159-0.034-0.311-0.063-0.465-0.087
									c-0.095,0.042-0.191,0.084-0.276,0.122C321.05,330.134,321.197,330.132,321.329,330.13z"/>
								<path style="fill:#BEDCE0;" d="M381.307,276.877l-0.104-0.009c0.086,0.015,0.166,0.031,0.218,0.055
									C381.351,276.905,381.351,276.893,381.307,276.877z"/>
								<polygon style="fill:#BEDCE0;" points="241.457,327.208 241.464,327.306 241.894,327.221 								"/>
								<path style="fill:#BEDCE0;" d="M408.447,278.209c0.052,0.034,0.154,0.069,0.356,0.099
									C408.788,278.283,408.634,278.247,408.447,278.209z"/>
								<path style="fill:#BEDCE0;" d="M420.171,278.296l1.658,0.138C421.112,278.355,420.589,278.318,420.171,278.296z"/>
								<path style="fill:#BEDCE0;" d="M426.748,279.242c0.068,0.037,0.119,0.042,0.166,0.046l0.002-0.012
									C426.86,279.261,426.804,279.249,426.748,279.242z"/>
								<path style="fill:#BEDCE0;" d="M285.863,278.944c-0.121,0.002-0.241,0.007-0.348,0.018
									C284.7,279.036,285.254,279.007,285.863,278.944z"/>
								<path style="fill:#BEDCE0;" d="M328.514,278.038c-0.453,0.07-0.899,0.139-1.371,0.183
									C327.902,278.25,328.492,278.258,328.514,278.038z"/>
								<path style="fill:#BEDCE0;" d="M238.236,279.411c0.005-0.002,0-0.003,0.005-0.007c-0.102,0-0.192,0-0.294,0L238.236,279.411
									z"/>
								<path style="fill:#BEDCE0;" d="M325.16,278.214c0.759,0.078,1.394,0.061,1.983,0.007
									C326.521,278.195,325.788,278.155,325.16,278.214z"/>
								<path style="fill:#BEDCE0;" d="M426.571,317.927l-0.016,0.434c0.026-0.007,0.046,0.018,0.062,0.052L426.571,317.927z"/>
								<path style="fill:#BEDCE0;" d="M426.618,318.413l0.046,0.482C426.664,318.674,426.661,318.482,426.618,318.413z"/>
								<path style="fill:#BEDCE0;" d="M426.761,319.91l-0.098-1.015C426.663,319.247,426.651,319.68,426.761,319.91z"/>
								<path style="fill:#BEDCE0;" d="M426.751,305.994l-0.141-0.137C426.639,305.932,426.685,305.98,426.751,305.994z"/>
								<path style="fill:#BEDCE0;" d="M426.71,302.368c-0.032,0.865-0.3,2.17-0.212,3.377l0.112,0.113
									C426.401,305.29,426.947,303.19,426.71,302.368z"/>
								<path style="fill:#BEDCE0;" d="M428.449,287.232l-0.112,3.038c0.15-0.531,0.351-1.23,0.387,0.152
									C429.171,286.593,428.389,291.213,428.449,287.232z"/>
								<path style="fill:#BEDCE0;" d="M428.666,277.066c0.035,1.111,0.089,1.097,0.145,0.774c0.056-0.318,0.114-0.954,0.157-0.925
									c-0.026-0.245-0.048-0.458-0.062-0.586c-0.906,0.074-1.024,0.116-0.191,0.191
									C428.7,276.605,428.684,276.818,428.666,277.066z"/>
								<path style="fill:#BEDCE0;" d="M360.048,276.568l0.164-0.353C358.954,276.266,360.2,276.352,360.048,276.568z"/>
								<polygon style="fill:#BEDCE0;" points="347.032,278.392 348.257,278.612 348.84,278.288 								"/>
								<polygon style="fill:#BEDCE0;" points="339.343,275.878 339.893,275.828 337.793,275.956 								"/>
								<path style="fill:#BEDCE0;" d="M224.988,276.004l0.38,0.435C226.219,276.36,226.397,275.872,224.988,276.004z"/>
								<path style="fill:#BEDCE0;" d="M175.62,276.446c-0.538-0.217-1.926-0.357-2.782-0.143
									C173.948,276.333,175.055,276.502,175.62,276.446z"/>
								<polygon style="fill:#BEDCE0;" points="228.364,330.694 227.371,330.84 229.242,330.719 								"/>
							</g>
						</g>
					</g>
				</g>
			</g>
			<g>
				<g>
					<g>
						<g>
							<g>
								<path style="fill:#BEDCE0;" d="M199.162,378.805c-0.267,0.098-0.116,0.321,0.62,0.277l0.522-0.378L199.162,378.805z"/>
								<path style="fill:#BEDCE0;" d="M204.113,379.506c0.865-0.183,1.864-0.506,1.303-0.853c-0.857,0.363-1.064,0.212-1.987,0.645
									c-0.737,0.044-1.285-0.121-1.161-0.26c-0.26,0.097-1.144-0.083-1.54,0.154c0.958,0.293,2.172,0.305,3.439,0.063
									C204.44,379.337,204.176,379.436,204.113,379.506z"/>
								<path style="fill:#BEDCE0;" d="M276.06,380.095l-0.464-0.045C275.723,380.075,275.882,380.089,276.06,380.095z"/>
								<path style="fill:#BEDCE0;" d="M320.637,380.303c-0.339,0.009-0.481,0.047-0.498,0.081
									C320.454,380.359,320.712,380.336,320.637,380.303z"/>
								<path style="fill:#BEDCE0;" d="M328.248,380.72c-0.164-0.009-0.301-0.017-0.449-0.026
									C327.97,380.729,328.142,380.748,328.248,380.72z"/>
								<path style="fill:#BEDCE0;" d="M276.06,380.095l1.191,0.119C277.334,380.091,276.64,380.123,276.06,380.095z"/>
								<path style="fill:#BEDCE0;" d="M214.035,378.593c-0.249,0.018-0.457,0.054-0.647,0.1c0.205-0.013,0.403-0.027,0.607-0.04
									C214.007,378.632,214.016,378.615,214.035,378.593z"/>
								<path style="fill:#BEDCE0;" d="M256.409,380.402l-0.362,0.001c-0.106,0.043-0.206,0.095-0.301,0.154L256.409,380.402z"/>
								<path style="fill:#BEDCE0;" d="M241.328,380.46c0.341,0.014,0.46-0.307,0.59-0.448c-0.193,0.132-0.445,0.195-0.744,0.22
									C241.169,380.294,241.214,380.367,241.328,380.46z"/>
								<path style="fill:#BEDCE0;" d="M217.415,379.895l-0.424,0.044C217.101,379.928,217.286,379.908,217.415,379.895z"/>
								<path style="fill:#BEDCE0;" d="M267.203,380.471c0.025,0.048,0.079,0.09,0.137,0.115
									C267.34,380.546,267.286,380.508,267.203,380.471z"/>
								<path style="fill:#BEDCE0;" d="M201.89,345.734c0.012-0.023-0.005-0.037-0.001-0.057
									C201.801,345.709,201.774,345.732,201.89,345.734z"/>
								<path style="fill:#BEDCE0;" d="M184.408,344.143l0.242-0.017c0.026-0.061,0.053-0.121,0.053-0.18L184.408,344.143z"/>
								<path style="fill:#BEDCE0;" d="M342.176,381.131c-0.027-0.003-0.036-0.004-0.062-0.006
									C341.748,381.162,341.955,381.155,342.176,381.131z"/>
								<path style="fill:#BEDCE0;" d="M420.858,342.897c1.449,0.287-2.357,0.368-0.177,0.688
									C420.478,343.459,422.663,343.084,420.858,342.897z"/>
								<path style="fill:#BEDCE0;" d="M214.425,378.635c0.204-0.001,0.411-0.002,0.618-0.003
									C214.762,378.622,214.572,378.623,214.425,378.635z"/>
								<path style="fill:#BEDCE0;" d="M420.681,343.585v0.003l0.225,0.03C420.813,343.604,420.76,343.596,420.681,343.585z"/>
								<path style="fill:#BEDCE0;" d="M374.27,380.938c-0.066-0.057-0.194-0.1-0.327-0.141
									C373.954,380.831,374.027,380.871,374.27,380.938z"/>
								<path style="fill:#BEDCE0;" d="M350.361,380.481l0.592,0.043C350.718,380.495,350.527,380.485,350.361,380.481z"/>
								<path style="fill:#BEDCE0;" d="M386.684,380.485c0.322,0.025,0.431,0.069,0.87,0.026c-0.041-0.016-0.081-0.028-0.133-0.039
									C387.261,380.515,387.05,380.536,386.684,380.485z"/>
								<path style="fill:#BEDCE0;" d="M399.605,380.483c-0.068-0.025-0.159-0.043-0.238-0.065
									c-0.128,0.005-0.278,0.012-0.409,0.017L399.605,380.483z"/>
								<path style="fill:#BEDCE0;" d="M241.157,345.579c-0.283-0.09-0.459-0.19-0.596-0.289
									C240.76,345.519,238.862,345.601,241.157,345.579z"/>
								<path style="fill:#BEDCE0;" d="M214.041,378.774c0.076-0.081,0.186-0.121,0.384-0.138c-0.148,0.006-0.291,0.012-0.43,0.017
									C213.958,378.701,213.95,378.746,214.041,378.774z"/>
								<path style="fill:#BEDCE0;" d="M387.209,377.951l2.053,0.047C388.688,377.967,387.942,377.951,387.209,377.951z"/>
								<path style="fill:#BEDCE0;" d="M333.854,345.534l-0.471,0.039C333.564,345.579,333.731,345.57,333.854,345.534z"/>
								<path style="fill:#BEDCE0;" d="M395.354,377.951c0.366,0.113,0.755,0.179,1.156,0.222c0.085-0.025,0.182-0.046,0.238-0.083
									L395.354,377.951z"/>
								<path style="fill:#BEDCE0;" d="M240.557,345.288l0.004,0.003L240.557,345.288z"/>
								<path style="fill:#BEDCE0;" d="M227.035,346.05c1.956,0.009,0.919-0.413,1.334-0.655c2.335-0.12,1.08,0.311,1.875,0.527
									c1.458-0.112,2.576-0.499,3.663-0.483c0.081,0.069,0.293,0.095,0.045,0.182c1.541-0.336,4.575-0.017,6.371-0.438
									c0.134,0.037,0.201,0.073,0.235,0.105c-0.291-0.212-0.336-0.427-0.276-0.579c0.877-0.007,1.627-0.267,1.957,0.009
									c-0.538-0.008-0.582,0.103-0.834,0.189l0.919-0.12c0.827,0.397-1.254,0.137-1.254,0.431c1.792-0.129,3.88-0.457,5.253-0.345
									c0.287,0.388-3.21,0.131-1.378,0.476l-2.124-0.148c1.624,0.612-1.291-0.043,0.201,0.612
									c2.796,0.112,3.127-0.198,5.915-0.085c0.628-0.216-0.208-0.319,0.421-0.535c3.964-0.387,3.12,0.976,6.034,0.459
									c0.754-0.259,1.047-0.75,3.122-0.49l-0.707,0.439c2.707,0.044,1.545-0.631,4.38-0.336c-0.504,0.172-2.127,0.145-1.718,0.197
									c1.836,0.346,1.299-0.249,2.711-0.249l0.293,0.389c2.882-0.061,6.056-0.342,9.247-0.413
									c-0.177,0.116-0.724,0.237,0.023,0.356c4.025-0.194,8.592,0.047,12.475,0.278l1.483-0.335
									c0.345,0.004,0.64,0.151,0.266,0.217c1.513,0.127,0.078-0.213,0.806-0.345c0.861-0.023,1.137,0.193,0.591,0.293
									c2.67-0.284,7.606-0.613,10.42-0.253l-0.548,0.1c2.191,0.136,2.472-0.688,4.504-0.375l-0.39,0.059
									c4.754,0.145,10.009-0.162,13.637,0.345c0.69-0.483,4.706,0.215,5.012-0.458c2.715,0.334,1.938,0.454,5.761,0.679
									c1.021,0.031,1.522-0.421,2.784-0.491l0.031,0.352l1.714-0.369l0.912,0.421l1.184-0.09
									c-0.472-0.021-1.003-0.158-0.931-0.259c1.85-0.16,4.509,0.245,4.555,0.426l4.376-0.298c-0.097,0.142-0.83,0.19-1.409,0.281
									c2.336-0.359,0.424,0.371,2.565,0.042c-0.287-0.08,0.155-0.21,0.204-0.281c1.067,0.213,3.496,0.215,5.293,0.125
									l-0.345,0.243c3.246,0.062,6.843-0.116,10.486-0.112c-1.307-0.113-1.007-0.534,0.062-0.575l0.427,0.373
									c0.69-0.23-1.116-0.141,0.3-0.422c1.361,0.043,0.915,0.423,0.134,0.545l1.654-0.129c0.097,0.111-0.291,0.17-0.392,0.311
									c0.679-0.231,2.856,0.374,3.835-0.028l0.093,0.111c3.642,0.003,5.293-0.125,8.26-0.144c0.058-0.322,1.218-0.25,2.102-0.51
									c2.18,0.103,4.6,0.355,7.226,0.328c1.846-0.16,0.539-0.272,1.369-0.463c0.136,0.293,2.759,0.265,1.398,0.476
									c3.153-0.048,4.027-0.059,8.014-0.296c-0.433-0.12-0.919-0.172-0.667-0.272c0.723-0.048,1.646,0.123,1.542,0.263
									l-0.191,0.03c4.475-0.439,10.329,0.853,13.893,0.243l-0.2,0.03l3.695-0.318c1.7,0.051-1.02,0.22,0.238,0.401
									c3.986-0.488,6.299,0.071,9.581-0.255c0.755,0.257,1.857,0.355,3.123,0.382c0.633,0.013,1.307,0.008,2-0.004l0.26-0.005
									l0.038-0.005l0.082-0.012l0.187-0.025c0.011,0.069,0.02,0.149,0.025,0.233l0.003,0.357c-0.003,0.23-0.005,0.456-0.007,0.678
									c-0.018,0.889-0.069,1.711-0.181,2.407l0.203-0.198c0.199,0.886-0.116,1.072-0.163,1.726
									c0.158-0.093,0.183-0.962,0.293-0.411c0.245,7.51-0.297,15.5-0.481,23.199c-0.027,1.408,0.236,1.808,0.445,2.299
									c0.105,0.246,0.196,0.514,0.23,0.943c0.017,0.196,0.021,0.51,0.004,0.74c-0.016,0.113-0.052,0.243-0.113,0.341
									c-0.126-0.184-0.252-0.299-0.377-0.346c0.044,0.061,0.079,0.16,0.108,0.278c-0.035,0.016-0.082,0.03-0.136,0.042
									l-0.086,0.016l-0.046,0.007c-0.013,0.002-0.017,0.004-0.125,0.006l-1.954,0.03c-1.305-0.001-2.612-0.003-3.914-0.004
									c-2.605-0.011-5.192-0.011-7.703,0.162c0.332-0.087,0.341-0.2,0.884-0.199c-1.175-0.274-4.345-0.013-4.365,0.21
									c-0.866-0.025-0.201-0.202-0.734-0.316c-1.179-0.162-2.958,0.35-3.585,0.077c-0.106-0.044,0.331-0.089,0.547-0.11
									c-0.768,0.133-3.579-0.034-2.843,0.283c-2.088-0.151-3.994,0.14-5.66-0.047c-1.086,0.354-3.574-0.17-3.919,0.33
									c0.15-0.517-3.66-0.417-4.981-0.174c0.442-0.156-1.148-0.162-0.63-0.378c-1.507,0.007-2.887,0.103-2.624,0.369
									c-2.776-0.618-5.579,0.498-7.142-0.295c-4.475,0.278-8.617,0.466-12.642,0.587c0.145-0.515,4.45-0.051,4.277-0.592
									c-3.819,0.212-6.022,0.655-9.809,0.53c-0.981-0.071,0.557-0.224,0.888-0.312c-3.815,0.212-7.377-0.047-10.772,0.234
									c0.009-0.048,0.376-0.1,0.722-0.14c-0.669,0.017-1.556-0.076-1.48,0.159l0.652-0.064c1.068,0.34-2.657,0.71-2.777,0.89
									c1.136-0.671-3.353-0.169-1.549-1.017c-0.44,0.044-0.993,0.155-0.892,0.312c-0.653-0.046-0.861-0.137-0.198-0.315
									c-2.396,0.128-1.545,0.377-3.716,0.371c0.008-0.114,0.446-0.157,0.671-0.291c-1.099,0.221-2.204,0.442-4.039,0.346
									c0.11-0.068-0.103-0.157,0.445-0.156c-3.151,0.034-5.371,0.589-8.829,0.376c1.02-0.493-1.176-0.162-1.359-0.589
									l-1.859,0.127l0.746,0.207c-1.628-0.007-3.068,0.303-4.468,0.164l1.21-0.176l-3.052,0.081l1.727,0.162
									c-1.648,0.22,0.177,0.54-1.991,0.421c0.44-0.044-1.629-0.005-2.478-0.257l0.005-0.001c-0.806,0.136-1.634,0.279-2.838,0.173
									c-0.313-0.136,0.252-0.472,0.048-0.563c-0.795,0.357-3.814,0.099-4.82,0.479c0.335-0.089,0.353-0.313,0.243-0.359
									l-0.667,0.29c-0.754-0.093-0.865-0.138-0.742-0.316c-2.269-0.053,0.721,0.541-1.972,0.308
									c0.211-0.023,0.11-0.067,0.551-0.111c-2.705-0.122-5.226,0.184-7.711,0.041c-0.733-0.429,2.172-0.105,1.332-0.467
									c-3.584,0.078-7.42,0.515-10.888,0.414l0.646,0.047c-0.481,0.606-2.583-0.3-4.336-0.014
									c0.429-0.045,0.563-0.336,0.447-0.269c-2.375-0.097-4.855,0.149-8.454,0.34l0.446-0.156
									c-1.399-0.139-3.686-0.08-5.198-0.151c-0.449,0.155-1.313,0.13-0.788,0.357c-4.661-0.887-8.892,0.475-13.027-0.263
									c0.494-0.002,1.179-0.136,0.785-0.137l-3.523,0.144c0.279,0.264,0.462,0.16,1.202,0.365
									c-0.446,0.157-1.44,0.278-2.313,0.278c1.584-0.175-0.014-0.424-0.698-0.571c0.115,0.081-0.12,0.17-0.062,0.252
									c-1.84-0.47-0.308,0.531-2.821,0.215l0.133-0.139c-0.94,0.071-1.807,0.254-2.821,0.215c-0.42-0.305,1.001-0.142,1.066-0.394
									c-1.424,0.018-2.81,0.579-4.1,0.274c0.605-0.085,1.475-0.087,2.08-0.171c-1.404-0.359-1.567-0.268-2.61-0.324l0.103,0.008
									l-2.411-0.162l0.614,0.097c-1.782,0.796-3.629,0.145-6.03,0.667c2.334-0.494,0.386-0.286,0.564-0.632
									c-0.613-0.096-1.545-0.204-1.28-0.301c-1.135,0.279-1.894-0.22-3.496,0.188c-0.072-0.111-1.214-0.011-0.958-0.291
									c-1.476,0.088,0.349,0.194,0.225,0.334c-2.274,0.381-5.346-0.462-8.617,0.061c-2.821,0.215-3.342,0.591-5.96,0.778
									c-0.883-0.178,0.724-0.406,0.724-0.406c-1.425-0.164-2.498-0.134-3.841-0.006c0.272-0.097-0.008-0.18-0.418-0.305
									c-1.078,0.029-0.721,0.406-2.142,0.242c0.244-0.124,0.557-0.323,1.077-0.448c-1.27,0.102-2.525,0.31-3.84,0.411
									c-0.349-0.194,0.794-0.295,1.257-0.422c-1.478,0.088-3.829,0.176-4.285,0.483l0.948,0.11
									c-0.539,0.015-0.277-0.264,0.12-0.32c1.266-0.241,1.827,0.107,1.898,0.218l-0.936,0.072
									c0.962,0.654,3.761-0.105,5.646-0.067l-0.786,0.475l1.934-0.394c0.411,0.124,0.693,0.389-0.238,0.46
									c1.351,0.235,1.196-0.169,2.357,0.093c0.128,0.041,0.07,0.064-0.049,0.083l1.321-0.142c-0.259,0.1,0.22,0.336-0.592,0.267
									c2.37,0.274,3.822-0.357,4.714,0.004l-0.198,0.029c3.288-0.161,0.318-0.349,2.785-0.758l1.66,0.861l0.323-0.349
									c0.339,0.013,1.01,0.039,0.886,0.178c1.263-0.239-0.215-0.152,0.518-0.377c1.633,0.318,4.502-0.149,4.871,0.407
									c0.586-0.265-1.562-0.204,0.181-0.389c0.497,0.598,2.015-0.102,3.507,0.172c-0.458,0.309-1.871,0.145-0.378,0.42
									c0.9-0.521,2.905,0.114,4.163,0.015c0.059-0.415,2.736-0.173,4.847-0.312c-0.134,0.14,3.973,0.228,5.937,0.378l-0.058,0.07
									c0.38-0.42,2.406-0.34,3.882-0.427c-0.058,0.251-0.323,0.35-1.122,0.463l1.387-0.002c0.327-0.134,0.76-0.205,1.659-0.253
									l-0.349,0.314c1.846-0.017,3.717-0.369,6.092-0.16c0.134-0.293-1.889-0.815,0.622-1.01c0.093,0.158,0.186,0.429-0.471,0.493
									c0.215-0.021,0.768-0.131,1.201-0.064l-1.003,0.266c1.082,0.117,0.566-0.222,1.43-0.198c-0.017,0.226,0.64,0.161,0.516,0.34
									c-0.221,0.022-0.754-0.093-1.085-0.005c0.975,0.04,2.154,0.174,2.543,0.345c-0.085-0.128,0-0.304,0.714-0.333
									c1.846-0.017,0.632,0.271,1.708,0.388c0.447-0.157,1.625,0.006,1.656-0.332c0.54,0.002,0.64,0.159,0.849,0.25
									c0.955-0.149,4.462-0.042,3.385-0.401l-0.245-0.024c0.046-0.004,0.1-0.009,0.156-0.015c-0.008,0,0,0-0.008,0h0.008
									c3.131-0.335,6.504,0.191,9.611,0.047l-0.005,0.113c1.855-0.129,4.128-0.076,5.452-0.319c0.549,0,1.295,0.206,1.06,0.34
									c1.418-0.085,1.577-0.211,3.624-0.025c-1.425,0.197,0.492,0.174-1.461,0.144c1.842,0.097,2.259,0.278,4.237-0.03
									c-0.673,0.289,1.387,0.364,2.263,0.278l-1.291-0.207c0.984-0.042,1.845-0.016,2.72,0.008l-0.473,0.38
									c3.77,0.463,6.798-0.787,9.667-0.013c0.997-0.266-2.047-0.187-1.155-0.498c1.734,0.051,3.54,0.597,4.083,0.598
									c2.375,0.211,2.216-0.555,4.701-0.411c-0.318-0.135-0.618-0.497,1.239-0.625c1.736,0.05,2.133,0.569,1.038,0.678
									c-0.416,0.011-0.617-0.032-0.599-0.077c-0.561,0.049-1.296,0.107-0.609,0.254l0.225-0.136
									c0.861,0.138,3.248,0.124,2.687,0.346c1.311-0.129,0.561-0.222-0.411-0.293c2.225,0.196,3.477,0.006,5.768,0.138
									c-0.364-0.075-0.7-0.234-0.337-0.233c3.36,0.168,1.479-0.257,3.756-0.317c1.293,0.207-0.464,0.493,1.828,0.32
									c1.399,0.14,0.296,0.36-0.26,0.47c2.088-0.261,3.901,0.172,5.094,0.22l-1.1,0.109c0.658-0.065,1.196-0.063,1.745-0.063
									l-0.628-0.271c0.646,0.047,1.193,0.048,1.18,0.161c0.665-0.178-0.509-0.451,0.811-0.694
									c0.861,0.138,2.622-0.148,2.919,0.212c-2.708-0.122,0.299,0.362-1.993,0.42c0.442-0.043,0.981-0.041,1.629,0.006
									c0.097,0.04-0.092,0.074-0.268,0.095c2.591,0.322,1.191-0.407,3.876-0.399c-0.341,0.203,0.622,0.385,1.061,0.341
									c-1.082-0.004-0.518-0.338,0.475-0.494c1.722,0.158,1.871-0.117,2.773-0.099l-1.029-0.074c0.349-0.203,1.21-0.176,2.41-0.24
									c0.103,0.158-1.09,0.109-0.662,0.178c1.333-0.357,3.011,0.369,4.869,0.129c0.861,0.137,0.083,0.381,0.839,0.474
									c2.083-0.263,2.255,0.278,4.444,0.061c-0.631-0.272-0.741-0.206,0.8-0.472l-3.598,0.192l2.309-0.396
									c-1.086-0.004-2.292,0.171-2.942,0.125c1.1-0.222,0.987-0.155,0.467-0.381c1.486,0.409,2.946-0.238,4.664,0.038
									l-0.052,0.675c2.583,0.301,4.588-0.346,7.942-0.176l-1.078-0.117c0.45-0.268,2.07-0.037,3.156-0.146
									c-0.101,0.226,0.578,0.308,1.041,0.448c-0.056-0.167,2.455,0.015,2.759-0.435l1.497,0.297
									c2.708,0.122,3.09-0.643,5.693-0.566c-0.784,0.245,0.399,0.405-1.345,0.581c0.869,0.002,1.651,0.043,1.664-0.113
									c0.508,0.141,2.41-0.304,3.209-0.09c0.366-0.099,0.486-0.335,1.462-0.317c0.107,0.046-0.004,0.111-0.004,0.111
									c0.004-0.111,1.528-0.152,0.675-0.401c2.677,0.704,7.482-0.051,9.813,0.553c1.897-0.076,4.182-0.148,5.904-0.165
									c-0.111,0.068-0.006,0.112-0.331,0.089c2.375,0.21,1.46-0.648,4.163-0.413c1.381,0.365-1.435,0.197-0.574,0.335
									c0.375,0.742,3.262-0.101,5.081,0.332l-0.44,0.044c1.39,0.252,3.392-0.281,5.663-0.228c0,0-0.11,0.066-0.013,0.112
									c1.553-0.379,4.494-0.504,6.679-0.609c-0.68,0.29-0.993,0.154-0.578,0.449c0.49-0.021,0.418-0.139,0.468-0.263
									c0.076-0.124,0.158-0.252,1.286-0.294c0.362,0.074,0.953,0.144,1.58,0.23c0.098-0.516,0.215-1.057,0.383-1.136l0.009,1.529
									l-1.177,0.007c0.414,0.104,0.885,0.154,1.357,0.172c0.052-1.252-0.168-3.12-0.115-3.598l0.178,0.124
									c-0.058-2.827-0.507-2.866-0.474-5.904l-0.135,0.314c-0.444-1.66,0.25-1.392-0.08-3.048l0.451-0.501
									c-0.109-1.095-0.436-3.837-0.521-5.801c0.335,1.113,0.506,3.411,0.704,4.834c0.003-1.086-0.033-3.69-0.256-4.256
									c0.044,0.438,0.154,0.989,0.085,1.421c-0.355-1.332-0.529-3.085-0.521-5.248c0.875,0.383,0.22-5.64,0.899-7.209
									c-0.104-1.231-0.127-2.455-0.112-3.699c0.038-1.655,0.076-3.336,0.116-5.076c-1.135-0.022-2.293-0.045-3.479-0.068
									c-0.755-0.016-1.529-0.023-2.325-0.014c1.581,0.681-1.302,0.019-1.028,0.718c-1.039,0.045-1.435,0.034-1.527-0.012
									l-3.148-0.417c-0.746-0.203,0.988-0.154,0.892-0.311c-2.274-0.054-0.954-0.296-2.459-0.482
									c0.308,0.25-0.791,0.358-2.087,0.263l1.826,0.322c-3.178,0.372-2.747-0.586-5.95-0.218l1.013-0.22
									c-1.644,0.13-6.064-0.004-7.675,0.557c-0.291-0.081-0.675-0.272,0.048-0.322c-3.928-0.084-8.745,0.597-11.798,0.252
									l0.298-0.171c-0.733,0.049-1.276,0.321-2.194,0.149c0.047-0.071,0.295-0.171-0.044-0.181
									c-0.388,0.059-1.947,0.299-2.918,0.2l0.83-0.192c-3.832-0.224-5.881,0.468-9.094,0.585c0.008-0.503-3.007-0.667-4.512-0.748
									l0.052-0.071c-4.462-0.062-7.579,0.417-11.711,0.614c-2.565-0.546-8.688-0.228-12.811-0.535
									c0.63,0.091-0.103,0.392-0.836,0.442c-0.967-0.102-2.674,0.349-2.521-0.112l0.345,0.009
									c-0.729-0.452-2.717-0.332-4.269-0.344l-0.256,0.603c-4.06-0.878-10.639,0.322-12.855-0.464
									c-0.98,0.151-2.194,0.149-3.165,0.3l0.052-0.324c-2.715-0.083-4.07-0.123-7.426-0.046l0.684-0.231
									c-1.893-0.021-2.39,0.933-4.136,0.952l-0.525-0.483c-3.302,0.008-6.645-0.417-9.908,0.022
									c0.053-0.071,0.151-0.21,0.685-0.23c-1.555-0.013-6.013-0.327-5.448,0.336c-0.039-0.432-3.407-0.042-5.19,0.148l0.277-0.318
									c-1.505,0.407-1.553,0.518-3.655,0.631c-0.498-0.042-0.436-0.255,0.225-0.173c-1.66-0.167-1.293,0.301-3.306,0.132
									l0.75-0.203c-1.708-0.025-1.572,0.085-2.512,0.322c-1.074,0.128-3.24-0.08-3.492-0.368c-0.23,0.176-1.166,0.41-2.172,0.327
									c-0.136-0.109,0.231-0.176,0.415-0.209c-2.856-0.217-4.246,0.37-6.21,0.057c-0.041-0.105-0.169-0.158-0.332-0.19
									c2.269,0.008,4.096,0.025,3.925,0.048c0-0.294-1.833-0.345-0.375-0.751c-1.471,0.221-3.986,0.702-5.773,0.564
									c-0.087-0.029-0.171-0.056-0.236-0.102l0.185-0.033c-0.412-0.029-0.781-0.002-1.129,0.047
									c-0.57-0.048-0.932-0.084-1.479-0.088c-0.211-0.243-2.101-0.131-3.015-0.143c0.076,0.321-1.121,0.27,0,0.535
									c-0.145-0.023,0.173-0.039,0.78-0.052c0.137-0.009,0.299-0.014,0.39-0.033c-0.018,0.008-0.04,0.018-0.062,0.028
									c0.6-0.006,1.382-0.013,2.271-0.021c-0.722,0.163-1.476,0.3-2.487,0.122c-0.469,0.206-0.985,0.419-1.276,0.518
									c-1.251-0.448-3.661-0.69-3.996-0.966c-2.79,0.18-6.573,0.119-8.327,0.722c-0.793,0.078-0.912-0.173-1.208-0.268
									c0.458-0.061,1.003-0.051,1.251-0.138c-1.586,0.155-4.699,0.06-5.078,0.482c-1.999-0.19,1.124-0.388-1.623-0.319
									l0.371-0.129c-5.404-0.674-8.786,1.076-14.777,0.211c0.415,0.053,0.622,0.078,0.707,0.148
									c-6.831-0.381-14.076,0.358-20.816-0.247c-1.916-0.122-2.123,0.147-3.293,0.352l-0.415-0.345l-1.999,0.398
									c-2.835,0.292-4.909-0.847-8.498-0.296l0.463,0.233c-1.289-0.044-4.083,0.137-3.868-0.13
									c-0.132,0.042-0.423,0.242-0.927,0.121l-0.039-0.181l-3.166,0.31c-2.455-0.131,0.384-0.717-3.198-0.752
									c-1.331,0.07-3.791,0.526-3.292,0.647c0.538,0.009,1.373,0.113,1.413,0.293l-1.218,0.094
									c-0.221,0.532-1.157,1.077,1.832,1.449l2.083-0.325l0.671,0.258l-1.753,0.016c0.994,0.243,1.625,0.028,2.331-0.119
									c0.167,0.137,0.46,0.233,0.873,0.284l2.045-0.508c0.248,0.208-0.917,0.413,0.455,0.528c0.958-0.236-0.919-0.467,0.667-0.622
									c0.997,0.242,0.706,0.439,1.875,0.232c0.164,0.137-0.083,0.224-0.547,0.285c1.041-0.164,2.755-0.069,3.293-0.352
									c1.038,0.298,3.515-0.078,3.412,0.426c0.327-0.121,1.834-0.395,2.79-0.416c-1.747,0.603,3.58,0.035,3.118,0.682
									c1.293-0.542,4.671-0.241,6.961-0.542c-0.128,0.043-0.38,0.13-0.582,0.103c1.289,0.045,1.664,0.209,2.492,0.311
									c0.166-0.448,2.173-0.55,3.255-0.826c1.58,0.432-0.96,0.526-0.463,0.941c-0.08-0.363,2.745-0.362,2.208-0.664
									c1.208,0.267,1.041,0.13,1.664,0.501c0.212-0.56,1.125-0.095,2.127-0.439c1.749,0.276,0.45,0.525,2.371,0.354
									C228.743,345.852,227.035,346.05,227.035,346.05z M272.722,345.082v0.006c-0.393,0.008-0.729,0.014-0.943,0.018
									C271.975,345.102,272.247,345.095,272.722,345.082z M276.561,345.077c-0.467-0.004-1.05-0.008-1.665-0.013
									c-0.135-0.111,0.011-0.225,0.397-0.219C275.084,344.92,275.989,344.983,276.561,345.077z M268.44,342.851
									c0.608-0.046,0.811,0.018,0.895,0.083c-0.287,0.01-0.622,0.022-1.063,0.039c-0.019,0.01-0.053,0.029-0.072,0.039
									C268.258,342.951,268.324,342.894,268.44,342.851z"/>
								<path style="fill:#BEDCE0;" d="M267.348,343.272c-0.088,0.007-0.136,0.021-0.251,0.023c0.125,0.025,0.243,0.048,0.363,0.072
									c0.074-0.035,0.149-0.07,0.215-0.101C267.564,343.269,267.45,343.271,267.348,343.272z"/>
								<path style="fill:#BEDCE0;" d="M275.515,380.043l0.081,0.007c-0.067-0.013-0.129-0.025-0.17-0.046
									C275.48,380.02,275.48,380.03,275.515,380.043z"/>
								<polygon style="fill:#BEDCE0;" points="329.577,345.692 329.572,345.611 329.236,345.682 								"/>
								<path style="fill:#BEDCE0;" d="M254.369,378.941c-0.04-0.028-0.12-0.057-0.278-0.082
									C254.104,378.88,254.224,378.909,254.369,378.941z"/>
								<path style="fill:#BEDCE0;" d="M245.235,378.869l-1.292-0.114C244.502,378.819,244.909,378.85,245.235,378.869z"/>
								<path style="fill:#BEDCE0;" d="M238.212,378.709c-0.089,0.056-0.114,0.099-0.137,0.138c0.006,0.001,0.014,0.002,0.014,0.002
									L238.212,378.709z"/>
								<path style="fill:#BEDCE0;" d="M349.877,378.332c0.094-0.002,0.188-0.006,0.271-0.015
									C350.783,378.255,350.352,378.28,349.877,378.332z"/>
								<path style="fill:#BEDCE0;" d="M316.646,379.082c0.353-0.058,0.7-0.116,1.068-0.152
									C317.123,378.906,316.664,378.9,316.646,379.082z"/>
								<path style="fill:#BEDCE0;" d="M386.984,377.945l-0.004,0.006c0.079,0,0.15,0,0.229,0L386.984,377.945z"/>
								<path style="fill:#BEDCE0;" d="M319.26,378.936c-0.592-0.064-1.086-0.05-1.545-0.006
									C318.2,378.952,318.771,378.985,319.26,378.936z"/>
								<path style="fill:#BEDCE0;" d="M207.773,378.564l-0.338-0.013c0.005,0.021-0.014,0.038-0.04,0.052L207.773,378.564z"/>
								<path style="fill:#BEDCE0;" d="M207.394,378.602l-0.376,0.038C207.191,378.64,207.34,378.637,207.394,378.602z"/>
								<path style="fill:#BEDCE0;" d="M206.227,378.721l0.791-0.081C206.744,378.639,206.407,378.629,206.227,378.721z"/>
								<path style="fill:#BEDCE0;" d="M217.07,378.712l0.107-0.117C217.118,378.62,217.081,378.658,217.07,378.712z"/>
								<path style="fill:#BEDCE0;" d="M219.895,378.678c-0.674-0.027-1.691-0.249-2.631-0.176l-0.088,0.093
									C217.618,378.422,219.255,378.875,219.895,378.678z"/>
								<path style="fill:#BEDCE0;" d="M231.688,380.118l-2.367-0.093c0.414,0.124,0.958,0.291-0.119,0.321
									C232.186,380.716,228.586,380.068,231.688,380.118z"/>
								<path style="fill:#BEDCE0;" d="M239.028,380.298c-1.272,0.058,0.015,0.18-0.052,0.25
									C239.783,380.435,239.978,380.407,239.028,380.298z"/>
								<path style="fill:#BEDCE0;" d="M292.078,380.299l-0.128,0.292C292.931,380.55,291.96,380.478,292.078,380.299z"/>
								<polygon style="fill:#BEDCE0;" points="302.219,378.789 301.265,378.607 300.811,378.875 								"/>
								<polygon style="fill:#BEDCE0;" points="308.21,380.871 307.781,380.913 309.417,380.806 								"/>
								<path style="fill:#BEDCE0;" d="M397.306,380.767l-0.296-0.36C396.347,380.471,396.208,380.876,397.306,380.767z"/>
								<path style="fill:#BEDCE0;" d="M428.616,371.577c0.18-0.419,0.296-1.501,0.119-2.168
									C428.71,370.275,428.57,371.137,428.616,371.577z"/>
								<polygon style="fill:#BEDCE0;" points="339.779,342.805 340.552,342.684 339.094,342.785 								"/>
							</g>
						</g>
					</g>
				</g>
			</g>
			<path style="fill:#B4D7DC;" d="M192.432,256.507H169.7c-1.718,0-3.11-1.392-3.11-3.11v-46.416c0-1.718,1.392-3.11,3.11-3.11
				h22.732c1.718,0,3.11,1.392,3.11,3.11v46.416C195.542,255.115,194.149,256.507,192.432,256.507z"/>
			<path style="fill:#B4D7DC;" d="M241.222,256.507H218.49c-1.718,0-3.11-1.392-3.11-3.11v-46.416c0-1.718,1.392-3.11,3.11-3.11
				h22.732c1.718,0,3.11,1.392,3.11,3.11v46.416C244.332,255.115,242.939,256.507,241.222,256.507z"/>
			<path style="fill:#B4D7DC;" d="M290.011,256.507H267.28c-1.718,0-3.11-1.392-3.11-3.11v-46.416c0-1.718,1.392-3.11,3.11-3.11
				h22.732c1.718,0,3.11,1.392,3.11,3.11v46.416C293.122,255.115,291.729,256.507,290.011,256.507z"/>
			<path style="fill:#B4D7DC;" d="M338.801,256.507H316.07c-1.718,0-3.11-1.392-3.11-3.11v-46.416c0-1.718,1.392-3.11,3.11-3.11
				h22.732c1.718,0,3.11,1.392,3.11,3.11v46.416C341.911,255.115,340.519,256.507,338.801,256.507z"/>
		</g>
	</g>
	<g>
		<ellipse style="fill:#C8E6EB;" cx="69.445" cy="459.257" rx="27.249" ry="5.297"/>
		<g>
			<path style="fill:#FF6473;" d="M86.84,309.541c0,0,22.329-11.793,23.43-12.304c3.733-1.732,7.568-1.732,7.568-1.732
				s10.968,0.258,11.09,1.878c0.087,1.153-6.976,0.984-6.976,0.984s-0.391,3.885-1.968,4.561c-1.577,0.676-7.781-0.358-7.781-0.358
				s-16.397,16.769-25.498,16.757L86.84,309.541z"/>
			<path style="fill:#5AB4FF;" d="M71.191,309.899c0,0,5.771,1.543,16.438-0.933c0,0,1.248,7.963,0.385,11.787
				c0,0-7.092,3.672-13.909,2.286L71.191,309.899z"/>
			<path style="fill:#FFFFFF;" d="M78.929,454.191l-9.269,2.142c-0.917-1.736-0.782-3.781-0.118-5.982l7.792-0.153
				C76.851,451.929,76.688,453.203,78.929,454.191z"/>
			<path style="fill:#827DDC;" d="M68.046,455.977c0.248-0.557,0.841-0.881,1.45-0.848c1.719,0.094,5.412,0.623,7.676-1.143
				c0.944-0.736,2.187-0.964,3.37-0.783c3.53,0.537,9.924,1.683,10.894,7.002c0,0-6.823,0.134-13.039-0.217
				c-4.399-0.248-10.637-1.405-10.637-1.405C67.739,457.75,67.613,456.95,68.046,455.977z"/>
			<path style="fill:#FFFFFF;" d="M57.885,454.543l-9.269,2.142c-0.917-1.736-0.782-3.781-0.118-5.982l7.792-0.153
				C55.807,452.281,55.644,453.555,57.885,454.543z"/>
			<path style="fill:#827DDC;" d="M47.002,456.328c0.248-0.557,0.841-0.881,1.45-0.848c1.719,0.094,5.412,0.623,7.676-1.144
				c0.944-0.736,2.187-0.964,3.37-0.783c3.53,0.537,9.924,1.683,10.893,7.002c0,0-6.823,0.134-13.039-0.217
				c-4.399-0.248-10.637-1.405-10.637-1.405C46.695,458.102,46.569,457.302,47.002,456.328z"/>
			<path style="fill:#41378C;" d="M73.386,365.646H54.477c-2.401,0-4.362,1.919-4.413,4.32l-1.703,80.153
				c2.57,1.832,7.917,3.122,10.104,1.195c0,0,5.223-46.021,6.482-58.707c0.061-0.613,0.119-1.2,0.177-1.775
				c2.011,10.184,3.886,20.278,3.891,22.525c0.014,5.876-0.63,37.476-0.63,37.476c2.7,1.636,8.128,2.525,10.165,0.44
				c0,0,0.718-27.987,1.031-40.731c0.315-12.829-1.549-27.742-1.784-40.539C77.753,367.586,75.802,365.646,73.386,365.646z"/>
			<path style="fill:#32285F;" d="M52.525,294.974c0.533,5.227,5.877,10.112,12.508,10.112s9.465-6.13,9.465-13.272
				s-2.456-11.303-10.146-11.296C54.522,280.528,51.78,287.67,52.525,294.974z"/>
			<path style="fill:#FF6473;" d="M54.719,289.29c0.875-8.133,7.146-8.007,14.492-6.957c4.774,0.682,6.055,5.459,6.405,10.356
				l0.002-0.038c0,0,1.048,3.799,2.121,5.325c0.275,0.392,0.179,0.932-0.211,1.211c-0.264,0.189-0.591,0.369-0.962,0.48
				c-0.493,0.148-0.828,0.602-0.894,1.112c-0.281,2.151-1.344,7.016-5.149,6.828c-2.125-0.105-9.43-3.245-12.769-5.597
				C55.96,300.747,53.844,297.423,54.719,289.29z"/>
			<polygon style="fill:#41378C;" points="77.572,362.627 77.572,361.59 50.156,358.995 50.156,364.516 62.033,379.661 
				66.039,378.198 			"/>
			<path style="fill:#5AB4FF;" d="M74.499,311.355c-1.436-2.04-12.57-2.622-12.57-2.622s-6.745,0.671-10.925,2.958
				c1.063,4.116-0.853,16.496-1.456,23.089c-0.201,9.964-0.012,32.353-0.012,32.353c17.501,6.625,28.59,1.176,28.59,1.176
				s1.492-16.115-0.554-31.436C76.293,327.296,78.366,316.851,74.499,311.355z"/>
			<path style="fill:#FF6473;" d="M59.163,312.513c3.322,1.93,7.465,2.253,9.905,0.913c0.624-0.343,0.928-1.058,0.846-1.766
				c-0.352-3.06-0.286-6.388,0.137-9.945l-9.84-0.729c-0.362,3.4-0.845,5.82-2.09,8.176
				C57.49,310.356,57.994,311.834,59.163,312.513z"/>
			<path style="fill:#32285F;" d="M60.258,295.911h3.016c0.612,0,1.108-0.496,1.108-1.108v-5.913h-4.125V295.911z"/>
			<path style="fill:#32285F;" d="M56.23,290.229h15.412c3.609,0,6.534-2.275,6.534-5.081l0,0c0-2.379-2.049-5.407-5.109-5.407
				H62.373c-2.793,0-6.144,2.859-6.144,5.032V290.229z"/>
			<path style="fill:#32285F;" d="M61.096,300.201c0,0-0.196,1.169,0.385,2.33c0,0-2.157,3.318-4.23,2.903l-0.73-3.152
				L61.096,300.201z"/>
			<path style="fill:#32285F;" d="M61.707,288.889l-0.618,12.249l-4.57,1.143c0,0-5.424-10.454-2.005-16.077
				C57.934,280.583,61.707,288.889,61.707,288.889z"/>
			<path style="fill:#FF6473;" d="M60.09,297.373c0.166,1.775,1.38,3.015,2.695,2.892c1.315-0.123,1.932-1.602,1.766-3.377
				c-0.166-1.775-1.367-3.114-2.682-2.991C60.554,294.02,59.923,295.598,60.09,297.373z"/>
			<rect x="31.591" y="344.438" style="fill:#32285F;" width="41.637" height="30.455"/>
			<g>
				<g>
					<path style="fill:#FF6473;" d="M50.071,369.66c-0.844-0.956-1.893-2.799-1.979-4.071c-0.627-9.222-0.843-20.912-1.256-24.237
						c2.752-5.007,5.092-8.891,6.272-12.172l-6.462-7.644c0,0-8.144,18.124-8.203,18.147c-2.632,8.166,5.207,27.852,5.207,27.852
						l-1.318,4.037c-0.322,0.92-0.897,3.181-0.152,3.811c1.26,1.066,3.992,1.421,6.516,1.677c0.767,0.078,1.228-1.165,1.515-2.399
						c0.102-0.438,0.627-0.605,0.979-0.324c0.661,0.53,2.734,2.069,3.667,1.676C55.741,375.642,52.138,372,50.071,369.66z"/>
				</g>
				<path style="fill:#2896FF;" d="M53.907,325.55c0.732-6.265,1.436-8.976-2.738-13.943c-0.045,0.024-0.093,0.045-0.138,0.07
					c-0.009,0.008-0.018,0.016-0.027,0.024c1.059,4.125-0.855,16.492-1.458,23.08c-0.043,2.154-0.068,4.89-0.081,7.854
					C51.342,340.778,54.463,331.512,53.907,325.55z"/>
				<path style="fill:#5AB4FF;" d="M51.145,311.576c-4.911,3.972-12.029,22.542-12.029,22.542c1.624,3.948,6.535,6.071,9.604,6.04
					c1.875-1.831,4.041-9.516,5.187-14.609C54.641,319.272,55.348,316.563,51.145,311.576z"/>
			</g>
		</g>
	</g>
	<g>
		<path style="fill:#C8E6EB;" d="M284.11,450.828c0,3.298-24.327,5.972-54.336,5.972c-30.009,0-54.336-2.674-54.336-5.972
			s24.327-5.972,54.336-5.972C259.783,444.856,284.11,447.53,284.11,450.828z"/>
		<g>
			<path style="fill:#FF6473;" d="M236.41,342.113c-0.389-0.587-0.887-2.106-1.371-3.833c-2.116,0.91-5.542,1.746-6.65,2.005
				c0.246,1.89,0.574,4.174,0.786,4.704c0.375,0.939,15.782,25.36,17.471,27.8h5.443
				C252.089,372.789,237.531,343.802,236.41,342.113z"/>
			<path style="fill:#FFFFFF;" d="M253.41,444.741l-10.871,0.547c-0.469-2.92-0.626-5.84-0.469-8.759h6.413
				C249.368,440.439,252.229,441.384,253.41,444.741z"/>
			<path style="fill:#FFFFFF;" d="M200.45,446.887l-10.896,0.426c-0.25-2.947-0.173-6.562,0.202-9.462l6.395,0.479
				C196.741,442.295,199.524,443.451,200.45,446.887z"/>
			<path style="fill:#827DDC;" d="M241.32,445.452c0.275-0.576,0.934-0.917,1.609-0.892c1.905,0.071,5.999,0.56,8.511-1.288
				c1.047-0.77,2.426-1.022,3.737-0.854c3.913,0.5,11,1.583,12.068,7.033c0,0-8.23,0.124-14.176-0.04
				c-6.296-0.174-12.105,0.085-12.105,0.085C240.942,448.641,240.839,446.458,241.32,445.452z"/>
			<path style="fill:#827DDC;" d="M187.127,451.502h20.013c0,0-3.519-4.951-6.818-6.214c-3.299-1.263-10.498,0.644-10.498,0.644
				S185.368,449.633,187.127,451.502z"/>
			<path style="fill:#41378C;" d="M247.332,399.205c0.091-0.964-0.116-1.926-0.589-2.771l-23.94-42.759
				c-0.613-1.094-1.768-1.771-3.022-1.771h-20.167c-1.983,0-3.561,1.656-3.459,3.636c0.557,10.801,2.179,42.073,2.398,44.038
				c0,0-10.989,29.234-9.891,41.332c0,0,3.927,2.338,8.683,0.224c2.485-9.875,7.344-23.928,13.387-36.887
				c0.534-1.144,0.887-2.361,1.032-3.615l3.067-26.488c7.434,10.621,16.108,22.709,19.275,25.931c0,0,1.936,28.881,7.341,40.239
				c3.045,0,6.733-0.236,8.089-1.869C247.958,426.068,246.389,409.142,247.332,399.205z"/>
			<path style="fill:#FF6473;" d="M212.573,302.526c0,0-2.027-4.358-1.824-8.109c0.203-3.75-0.203-19.156,12.061-17.028
				c12.264,2.128,10.237,12.467,9.122,15.406c-1.115,2.939-8.514,9.831-13.075,10.642
				C214.297,304.249,212.573,302.526,212.573,302.526z"/>
			<path style="fill:#5AB4FF;" d="M236.41,337.523l-3.146-21.12c0-2.546-5.165-8.381-9.323-10.482s-10.299-1.783-10.299-1.783
				s-6.291-1.661-9.437-1.364c-0.274,0.026-0.619,0.19-0.992,0.411c-4.267,3.728-13.257,15.118-13.989,17.317
				c0,0,1.632,5.002,7.904,7.883l2.741-3.372c-1.842,12.13-3.781,25.132-3.902,26.888c0,0,19.922,3.145,27.111,3.295
				c0,0-0.15-10.784,0-13.78c0.051-1.024,1.258-3.974,2.824-7.514c0.742,2.689,1.518,5.208,2.119,6.466
				C228.022,340.369,234.762,338.871,236.41,337.523z"/>
			<path style="fill:#FF6473;" d="M226.606,298.984c0,0-2.966,6.47-2.475,9.09c0.491,2.62-4.258,3.603-5.732,3.112
				c-1.474-0.491-7.043-1.146-3.276-9.663L226.606,298.984z"/>
			<polygon style="fill:#FFBE82;" points="170.183,340.016 278.049,366.46 297.354,380.774 274.07,384.659 165.472,357.748 			"/>
			<polygon style="fill:#FF965A;" points="275.182,379.573 166.78,352.826 169.067,344.219 277.08,370.894 			"/>
			<path style="fill:#FF6473;" d="M246.251,377.766c0,0,1.399,2.502,3.116,2.971c3.69,1.008,8.236-0.158,8.236-0.158
				L246.251,377.766z"/>
			<path style="fill:#FF6473;" d="M255.146,379.946c0,0,2.793-2.123,3.378-1.975c0.585,0.148-0.99,2.648-0.99,2.648
				S255.28,381.256,255.146,379.946z"/>
			<path style="fill:#FF6473;" d="M252.712,379.346c0,0,2.793-2.123,3.378-1.975c0.585,0.148-0.99,2.648-0.99,2.648
				S252.846,380.656,252.712,379.346z"/>
			<path style="fill:#FF6473;" d="M250.278,378.746c0,0,2.793-2.123,3.378-1.975c0.586,0.148-0.99,2.648-0.99,2.648
				S250.412,380.056,250.278,378.746z"/>
			<polygon style="fill:#FFEBB4;" points="274.07,384.659 278.049,366.46 297.354,380.774 			"/>
			<path style="fill:#B4D7DC;" d="M290.182,381.97c-0.321-2.07-0.062-4.016,0.968-5.797l6.205,4.601L290.182,381.97z"/>
			<path style="fill:#FF6473;" d="M201.262,359.705c-1.073-0.689-2.585-2.176-3.016-3.376c-0.535-1.491-2.213-5.097-2.138-5.693
				c-3.464-8.855-6.527-15.029-6.527-15.029c2.318-1.61,4.838-4.783,6.747-7.624c-4.029-2.1-5.936-5.039-6.687-6.531l-7.659,11.602
				c-1.454,8.193,12.522,26.36,12.522,26.36l-0.305,5.095c-0.058,0.973,0.475,1.897,1.363,2.3c1.503,0.681,3.976,1.506,6.474,1.063
				c0.759-0.135,0.786-2.13,0.725-3.395c-0.022-0.45,0.438-0.754,0.853-0.579c0.781,0.33,3.195,1.244,3.985,0.611
				C208.35,363.912,203.888,361.392,201.262,359.705z"/>
			<path style="fill:#32285F;" d="M211.099,288.915c0,0-2.217-5.499,0.83-9.734c2.089-2.904,7.076-4.951,10.66-3.016
				c0,0,3.414-0.626,6.366,1.023c2.952,1.649,7.97,8.123,3.834,15.32c-5.557,9.671-7.361,9.361-7.361,9.361l2.034-5.49l1.492-5.957
				l-4.646-5.667C224.308,284.755,217.155,291.04,211.099,288.915z"/>
			<path style="fill:#32285F;" d="M224.308,284.198c1.572,2.477,1.28,5.528,0,8.885l1.147,0l4.909-4.465L224.308,284.198z"/>
			<path style="fill:#FF6473;" d="M229.313,293.562c-0.732,1.418-2.12,2.157-3.101,1.65c-0.981-0.506-1.184-2.066-0.452-3.484
				c0.732-1.418,2.12-2.157,3.101-1.65C229.842,290.585,230.044,292.144,229.313,293.562z"/>
		</g>
	</g>
	<g>
		<ellipse style="fill:#C8E6EB;" cx="420.153" cy="431.168" rx="31.172" ry="4.373"/>
		<polygon style="fill:#B4D7DC;" points="358.017,252.666 323.742,252.666 327.85,250.491 315.679,249.307 324.884,246.267 
			326.914,243.823 325.868,240.758 327.85,238.495 325.744,235.98 327.148,233.589 358.017,233.589 		"/>
		<g>
			<polygon style="fill:#FFE678;" points="356.164,256.507 348.025,252.43 349.604,249.279 351.643,248.328 352.327,243.842 
				354.696,242.516 353.022,239.463 354.792,237.121 356.816,236.386 357.468,233.581 365.607,237.658 			"/>
			
				<rect x="358.473" y="235.971" transform="matrix(-0.8941 -0.4479 0.4479 -0.8941 570.9832 628.0417)" style="fill:#FFAA50;" width="2.547" height="21.082"/>
			<path style="fill:#97F4EC;" d="M376.507,246.14L376.507,246.14c-1.042,2.081,0.603,4.94,3.544,6.159l6.496,2.693
				c3.277,1.358,5.111,4.545,3.949,6.863l0,0c-1.152,2.3-4.759,2.754-7.802,0.981l-6.186-3.603
				c-2.731-1.591-5.968-1.184-7.002,0.881l-0.022,0.044c-1.02,2.036-4.111,2.553-6.903,1.154l-7.055-3.534l10.717-21.393
				l7.055,3.534C376.091,241.319,377.528,244.104,376.507,246.14z"/>
		</g>
		<g>
			<path style="fill:#FF6473;" d="M404.064,276.913c0,0-14.438-8.798-17.596-18.186c-0.387-1.15-6.472,0.17-6.472,0.17
				c-2.684-0.815-5.677-0.227-5.677-0.227s1.171,1.17,2.782,1.76c1.302,0.477,2.448,1.512,3.308,1.747
				c0.595,0.163,1.091,0.548,1.388,1.089c2.197,3.994,10.874,19.78,18.289,22.825L404.064,276.913z"/>
			<path style="fill:#827DDC;" d="M400.961,432.266h12.91c0,0,0.909-0.727,1.091-2.182c0.182-1.455-4.909-6.182-5.819-6.364
				c-0.909-0.182-5.091,0-5.091,0S400.234,429.357,400.961,432.266z"/>
			<path style="fill:#827DDC;" d="M440.725,432.266h-12.91c0,0-0.909-0.727-1.091-2.182c-0.182-1.455,4.909-6.182,5.819-6.364
				c0.909-0.182,5.091,0,5.091,0S441.452,429.357,440.725,432.266z"/>
			<path style="fill:#FF6473;" d="M437.39,304.341l3.627,8.304c0,0-0.692,11.061,0.024,14.922c0.717,3.861,0.692,6,0.692,6
				s-1.057,5.462,0.01,8.543l1.043,0.592c0,0,1.43,1.011,2.314,1.014c1.909,0.007,6.225-2.573,6.225-2.573s-1.643-4.754-2.791-6.757
				c-1.148-2.004-1.56-6.11-1.213-7.682c0.692-3.138,1.49-13.1,0.413-16.422c-1.18-3.638-5.638-12.179-5.638-12.179L437.39,304.341z
				"/>
			<path style="fill:#FF6473;" d="M417.851,249.904c3.766-0.761,10.445,2.635,10.561,9.476c0.116,6.841-0.854,17.294-7.314,17.992
				c-8.555,0.924-10.469-6.205-10.959-10.262C409.697,263.452,406.372,252.223,417.851,249.904z"/>
			<path style="fill:#FF6473;" d="M416.575,273.441l-2.551,9.739c0,0,2.899,3.131,6.493,2.899c3.594-0.232,7.652-4.29,7.652-4.29
				s-3.826-4.754-3.826-8.348H416.575z"/>
			<path style="fill:#32285F;" d="M415.843,276.012c3.124,1.13,4.465,1.407,9.141,0c3.246-4.019,4.097-11.041,4.007-16.396
				c-0.116-6.841-7.374-10.472-11.14-9.711c-11.478,2.319-4.107,8.89-4.338,15.635C413.433,267.849,413.003,273.577,415.843,276.012
				z"/>
			<path style="fill:#41378C;" d="M438.197,369.959c-0.173-2.776-4.859-37.618-5.519-42.52h-25.323
				c-0.456,4.902-3.693,39.744-3.866,42.52c-0.187,2.986-0.728,9.91-0.728,9.91s-0.411,19.017-0.225,22.376
				c0.187,3.359,0.952,22.265,0.952,22.265s3.46,1.453,7.652,0c0.747-1.12,3.732-43.708,3.732-43.708l5.126-32.273h1.636
				l5.179,32.273c0,0,2.986,42.589,3.733,43.708c4.804,1.728,7.652,0,7.652,0s0.766-18.906,0.952-22.265
				c0.186-3.359-0.225-22.376-0.225-22.376S438.384,372.945,438.197,369.959z"/>
			<path style="fill:#97F4EC;" d="M432.049,280.362l-0.11-0.049c-2.606-1.175-5.457-1.699-8.31-1.53l-3.912,0.233
				c-0.554,0.033-1.105,0.111-1.646,0.235l-6.87,1.565l-8.073-5.155c0,0-4.669,9.629-5.252,10.699c0,0,8.462,9.532,9.045,10.407
				c0.584,0.875,0.83,14.259,0.83,15.621c0,1.362-2.928,17.081-1.72,26.898c5.204,2.204,20.23,2.677,28.497-1.31l-1.02-38.316
				l3.156,6.977c0.204,0.452,0.691,0.7,1.182,0.626c4.241-0.638,6.842-6.253,6.842-6.253s-5.038-10.273-7.72-15.853
				C435.944,283.03,434.202,281.333,432.049,280.362z"/>
			<g>
				<rect x="440.101" y="347.452" style="fill:#5046AF;" width="17.378" height="20.574"/>
				<path style="fill:none;stroke:#5046AF;stroke-width:1.5733;stroke-miterlimit:10;" d="M439.817,348.639
					c0-4.935,4.001-8.935,8.935-8.935c4.935,0,8.935,4,8.935,8.935"/>
			</g>
			<path style="fill:#FF6473;" d="M445.598,342.173c0,0-2.905-2.939-2.158-3.769c0.747-0.83,6.308-3.237,7.055-1.909
				c0.747,1.328,0.83,4.648,0.83,4.648L445.598,342.173z"/>
			<path style="fill:#FFAA50;" d="M429.438,261.764c0.084-0.541,0.139-1.091,0.139-1.656c0-5.828-4.618-10.553-10.316-10.553
				c-5.697,0-10.316,4.725-10.316,10.553c0,0.565,0.056,1.115,0.139,1.656H429.438z"/>
			<path style="fill:#FFAA50;" d="M404.599,258.794h6.553v2.97h-8.44v-1.082C402.712,259.64,403.557,258.794,404.599,258.794z"/>
			<path style="fill:#32285F;" d="M424.984,260.826h-7.112v-1.665c0-0.418,0.339-0.757,0.758-0.757h5.596
				c0.418,0,0.758,0.339,0.758,0.757V260.826z"/>
			<path style="fill:#FF6473;" d="M415.685,265.239c0,1.34-0.797,2.427-1.78,2.427c-0.983,0-1.78-1.087-1.78-2.427
				c0-1.34,0.797-2.427,1.78-2.427C414.888,262.812,415.685,263.898,415.685,265.239z"/>
		</g>
		<path style="fill:#FF6473;" d="M386.467,258.727c0,0,0.965-6.472-5.129-7.757c-1.781-0.376-3.177,0.222-3.177,0.222
			s2.886,1.858,3.029,3.14c0.199,1.777-1.138,5.372-1.138,5.372L386.467,258.727z"/>
	</g>
</g>
</svg>
